<?xml version="1.0" encoding="UTF-8"?>
<svg width="20px" height="20px" viewBox="0 0 20 20" version="1.1" xmlns="http://www.w3.org/2000/svg" xmlns:xlink="http://www.w3.org/1999/xlink">
    <!-- Generator: Sketch 49.1 (51147) - http://www.bohemiancoding.com/sketch -->
    <title>Group 5</title>
    <desc>Created with Sketch.</desc>
    <defs>
        <linearGradient x1="18.3888269%" y1="12.202381%" x2="80.9632316%" y2="89.6081349%" id="linearGradient-1">
            <stop stop-color="#88B6FF" offset="0%"></stop>
            <stop stop-color="#357DF1" offset="100%"></stop>
        </linearGradient>
    </defs>
    <g id="Page-1" stroke="none" stroke-width="1" fill="none" fill-rule="evenodd">
        <g id="我的" transform="translate(-22.000000, -358.000000)" fill="url(#linearGradient-1)">
            <g id="Group-7-Copy-3" transform="translate(0.000000, 358.000000)">
                <g id="Group-8" transform="translate(22.000000, 0.000000)">
                    <path d="M9.45317747,8.67985363 C9.41019722,8.75458891 9.35676914,8.82495628 9.29289322,8.8888322 L8.8888322,9.29289322 C8.82495628,9.35676914 8.75458891,9.41019722 8.67985363,9.45317747 C8.70230783,9.53641492 8.71428571,9.62395152 8.71428571,9.71428571 L8.71428571,10.2857143 C8.71428571,10.3760485 8.70230783,10.4635851 8.67985363,10.5468225 C8.75458891,10.5898028 8.82495628,10.6432309 8.8888322,10.7071068 L9.29289322,11.1111678 C9.35676914,11.1750437 9.41019722,11.2454111 9.45317747,11.3201464 C9.53641492,11.2976922 9.62395152,11.2857143 9.71428571,11.2857143 L10.2857143,11.2857143 C10.3760485,11.2857143 10.4635851,11.2976922 10.5468225,11.3201464 C10.5898028,11.2454111 10.6432309,11.1750437 10.7071068,11.1111678 L11.1111678,10.7071068 C11.1750437,10.6432309 11.2454111,10.5898028 11.3201464,10.5468225 C11.2976922,10.4635851 11.2857143,10.3760485 11.2857143,10.2857143 L11.2857143,9.71428571 C11.2857143,9.62395152 11.2976922,9.53641492 11.3201464,9.45317747 C11.2454111,9.41019722 11.1750437,9.35676914 11.1111678,9.29289322 L10.7071068,8.8888322 C10.6432309,8.82495628 10.5898028,8.75458891 10.5468225,8.67985363 C10.4635851,8.70230783 10.3760485,8.71428571 10.2857143,8.71428571 L9.71428571,8.71428571 C9.62395152,8.71428571 9.53641492,8.70230783 9.45317747,8.67985363 Z M8.71428571,3.11781948 L8.71428571,2 C8.71428571,1.44771525 9.16200096,1 9.71428571,1 L10.2857143,1 C10.837999,1 11.2857143,1.44771525 11.2857143,2 L11.2857143,3.11781948 C12.2624353,3.29914262 13.1679319,3.68326143 13.9568767,4.22484872 L14.747717,3.43400846 C15.1382413,3.04348417 15.7714062,3.04348417 16.1619305,3.43400846 L16.5659915,3.83806948 C16.9565158,4.22859377 16.9565158,4.86175875 16.5659915,5.25228304 L15.7751513,6.0431233 C16.3167386,6.83206814 16.7008574,7.73756468 16.8821805,8.71428571 L18,8.71428571 C18.5522847,8.71428571 19,9.16200096 19,9.71428571 L19,10.2857143 C19,10.837999 18.5522847,11.2857143 18,11.2857143 L16.8821805,11.2857143 C16.7008574,12.2624353 16.3167386,13.1679319 15.7751513,13.9568767 L16.5659915,14.747717 C16.9565158,15.1382413 16.9565158,15.7714062 16.5659915,16.1619305 L16.1619305,16.5659915 C15.7714062,16.9565158 15.1382413,16.9565158 14.747717,16.5659915 L13.9568767,15.7751513 C13.1679319,16.3167386 12.2624353,16.7008574 11.2857143,16.8821805 L11.2857143,18 C11.2857143,18.5522847 10.837999,19 10.2857143,19 L9.71428571,19 C9.16200096,19 8.71428571,18.5522847 8.71428571,18 L8.71428571,16.8821805 C7.73756468,16.7008574 6.83206814,16.3167386 6.0431233,15.7751513 L5.25228304,16.5659915 C4.86175875,16.9565158 4.22859377,16.9565158 3.83806948,16.5659915 L3.43400846,16.1619305 C3.04348417,15.7714062 3.04348417,15.1382413 3.43400846,14.747717 L4.22484872,13.9568767 C3.68326143,13.1679319 3.29914262,12.2624353 3.11781948,11.2857143 L2,11.2857143 C1.44771525,11.2857143 1,10.837999 1,10.2857143 L1,9.71428571 C1,9.16200096 1.44771525,8.71428571 2,8.71428571 L3.11781948,8.71428571 C3.29914262,7.73756468 3.68326143,6.83206814 4.22484872,6.0431233 L3.43400846,5.25228304 C3.04348417,4.86175875 3.04348417,4.22859377 3.43400846,3.83806948 L3.83806948,3.43400846 C4.22859377,3.04348417 4.86175875,3.04348417 5.25228304,3.43400846 L6.0431233,4.22484872 C6.83206814,3.68326143 7.73756468,3.29914262 8.71428571,3.11781948 Z M10,14 C12.209139,14 14,12.209139 14,10 C14,7.790861 12.209139,6 10,6 C7.790861,6 6,7.790861 6,10 C6,12.209139 7.790861,14 10,14 Z" id="Combined-Shape"></path>
                </g>
            </g>
        </g>
    </g>
</svg>