<?xml version="1.0" encoding="UTF-8"?>
<svg width="22px" height="22px" viewBox="0 0 22 22" version="1.1" xmlns="http://www.w3.org/2000/svg" xmlns:xlink="http://www.w3.org/1999/xlink">
    <!-- Generator: Sketch 49.1 (51147) - http://www.bohemiancoding.com/sketch -->
    <title>Shape</title>
    <desc>Created with Sketch.</desc>
    <defs></defs>
    <g id="Page-1" stroke="none" stroke-width="1" fill="none" fill-rule="evenodd">
        <g id="我的-充值" transform="translate(-244.000000, -73.000000)" fill-rule="nonzero">
            <g id="Group-3" transform="translate(244.000000, 73.000000)">
                <g id="银联">
                    <path d="M21.9653543,18.3275591 L21.9653543,18.4661417 C21.9653543,20.4062992 20.3889764,21.9826772 18.4488189,21.9826772 L3.53385827,21.9826772 C1.61102362,21.9826772 0.0173228346,20.3889764 0.0173228346,18.4661417 L0.0173228346,3.5511811 C0.0173228346,1.61102362 1.61102362,0.0173228346 3.53385827,0.0173228346 L18.4661417,0.0173228346 C20.4062992,0.0173228346 21.9826772,1.59370079 21.9826772,3.53385827 L21.9826772,14.880315 L21.9653543,18.3275591 Z" id="Shape" fill="#117C83"></path>
                    <path d="M18.4661417,21.9826772 L3.5511811,21.9826772 C1.62834646,21.9826772 0.0346456693,20.3889764 0.0346456693,18.4661417 L0.0346456693,3.5511811 C0.0173228346,1.61102362 1.61102362,0.0173228346 3.53385827,0.0173228346 L18.4661417,0.0173228346" id="Shape" fill="#D23431"></path>
                    <path d="M5.66456693,6.0976378 C5.66456693,6.82519685 5.33543307,7.17165354 4.65984252,7.17165354 C4.01889764,7.17165354 3.68976378,6.82519685 3.68976378,6.11496063 L3.68976378,4.71181102 L4.20944882,4.71181102 L4.20944882,6.11496063 C4.20944882,6.51338583 4.36535433,6.72125984 4.67716535,6.72125984 C4.98897638,6.72125984 5.14488189,6.53070866 5.14488189,6.13228346 L5.14488189,4.71181102 L5.66456693,4.71181102 L5.66456693,6.0976378 Z M7.77795276,7.13700787 L7.27559055,7.13700787 L7.27559055,6.18425197 C7.27559055,5.90708661 7.17165354,5.76850394 6.98110236,5.76850394 C6.87716535,5.76850394 6.80787402,5.80314961 6.73858268,5.87244094 C6.66929134,5.94173228 6.6519685,6.04566929 6.6519685,6.1496063 L6.6519685,7.13700787 L6.1496063,7.13700787 L6.1496063,5.42204724 L6.6519685,5.42204724 L6.6519685,5.6992126 C6.77322835,5.49133858 6.96377953,5.38740157 7.20629921,5.38740157 C7.58740157,5.38740157 7.77795276,5.62992126 7.77795276,6.0976378 L7.77795276,7.13700787 Z M8.15905512,4.8503937 C8.15905512,4.78110236 8.19370079,4.71181102 8.24566929,4.65984252 C8.2976378,4.60787402 8.36692913,4.59055118 8.45354331,4.59055118 C8.54015748,4.59055118 8.60944882,4.60787402 8.66141732,4.65984252 C8.71338583,4.71181102 8.7480315,4.78110236 8.7480315,4.8503937 C8.7480315,4.91968504 8.71338583,4.98897638 8.66141732,5.04094488 C8.60944882,5.09291339 8.54015748,5.11023622 8.45354331,5.11023622 C8.38425197,5.11023622 8.2976378,5.09291339 8.24566929,5.04094488 C8.19370079,4.98897638 8.15905512,4.91968504 8.15905512,4.8503937 Z M8.19370079,7.13700787 L8.19370079,5.42204724 L8.69606299,5.42204724 L8.69606299,7.13700787 L8.19370079,7.13700787 Z M9.04251969,6.27086614 C9.04251969,5.99370079 9.12913386,5.76850394 9.3023622,5.59527559 C9.47559055,5.43937008 9.7007874,5.35275591 9.99527559,5.35275591 C10.2724409,5.35275591 10.4976378,5.43937008 10.6535433,5.59527559 C10.8094488,5.7511811 10.896063,5.97637795 10.896063,6.23622047 C10.896063,6.51338583 10.8094488,6.73858268 10.6535433,6.91181102 C10.480315,7.08503937 10.2551181,7.15433071 9.97795276,7.15433071 C9.7007874,7.15433071 9.47559055,7.06771654 9.3023622,6.91181102 C9.12913386,6.77322835 9.04251969,6.5480315 9.04251969,6.27086614 Z M9.56220472,6.27086614 C9.56220472,6.61732283 9.7007874,6.79055118 9.97795276,6.79055118 C10.2551181,6.79055118 10.376378,6.61732283 10.376378,6.25354331 C10.376378,5.92440945 10.2377953,5.7511811 9.97795276,5.7511811 C9.83937008,5.7511811 9.73543307,5.80314961 9.66614173,5.88976378 C9.59685039,5.97637795 9.56220472,6.0976378 9.56220472,6.27086614 Z M12.888189,7.13700787 L12.3858268,7.13700787 L12.3858268,6.18425197 C12.3858268,5.90708661 12.2818898,5.76850394 12.0913386,5.76850394 C11.9874016,5.76850394 11.9181102,5.80314961 11.8488189,5.87244094 C11.7795276,5.94173228 11.7622047,6.04566929 11.7622047,6.1496063 L11.7622047,7.13700787 L11.2598425,7.13700787 L11.2598425,5.42204724 L11.7622047,5.42204724 L11.7622047,5.6992126 C11.8834646,5.49133858 12.0740157,5.38740157 12.3165354,5.38740157 C12.6976378,5.38740157 12.888189,5.62992126 12.888189,6.0976378 L12.888189,7.13700787 Z M13.8755906,6.28818898 L13.8755906,7.13700787 L13.3559055,7.13700787 L13.3559055,4.71181102 L14.1874016,4.71181102 C14.7937008,4.71181102 15.088189,4.97165354 15.088189,5.47401575 C15.088189,5.71653543 15.0015748,5.92440945 14.8110236,6.06299213 C14.6377953,6.21889764 14.3952756,6.28818898 14.1354331,6.27086614 L13.8755906,6.28818898 Z M13.8755906,5.11023622 L13.8755906,5.88976378 L14.1007874,5.88976378 C14.3952756,5.88976378 14.5511811,5.7511811 14.5511811,5.49133858 C14.5511811,5.23149606 14.3952756,5.11023622 14.1007874,5.11023622 L13.8755906,5.11023622 Z M15.3653543,5.50866142 C15.4346457,5.45669291 15.5559055,5.42204724 15.6771654,5.40472441 C15.815748,5.37007874 15.919685,5.37007874 16.0062992,5.37007874 C16.4913386,5.37007874 16.7338583,5.61259843 16.7338583,6.0976378 L16.7338583,7.13700787 L16.2488189,7.13700787 L16.2488189,6.89448819 C16.1275591,7.08503937 15.9543307,7.18897638 15.7291339,7.18897638 C15.5732283,7.18897638 15.4346457,7.13700787 15.3307087,7.0503937 C15.2267717,6.96377953 15.1748031,6.82519685 15.1748031,6.66929134 C15.1748031,6.34015748 15.3653543,6.1496063 15.7637795,6.0976378 L16.2314961,6.02834646 C16.2314961,5.82047244 16.1275591,5.73385827 15.919685,5.73385827 C15.711811,5.73385827 15.5212598,5.80314961 15.3307087,5.92440945 L15.3653543,5.50866142 Z M15.9370079,6.35748031 C15.7637795,6.37480315 15.6598425,6.46141732 15.6598425,6.6 C15.6598425,6.66929134 15.6771654,6.72125984 15.7291339,6.75590551 C15.7811024,6.79055118 15.8330709,6.80787402 15.9023622,6.80787402 C16.0062992,6.80787402 16.0929134,6.77322835 16.1622047,6.70393701 C16.2314961,6.63464567 16.2661417,6.5480315 16.2661417,6.42677165 L16.2661417,6.30551181 L15.9370079,6.35748031 Z M18.7779528,5.40472441 L18.0677165,7.27559055 C17.8944882,7.70866142 17.6519685,7.93385827 17.3228346,7.93385827 C17.184252,7.93385827 17.0976378,7.91653543 17.0283465,7.8992126 L17.0283465,7.5007874 C17.0976378,7.53543307 17.1669291,7.55275591 17.2535433,7.55275591 C17.392126,7.55275591 17.4787402,7.48346457 17.5480315,7.34488189 L17.6346457,7.11968504 L16.9417323,5.40472441 L17.496063,5.40472441 L17.8251969,6.47874016 C17.8425197,6.5480315 17.8598425,6.61732283 17.8771654,6.70393701 L17.8944882,6.70393701 C17.8944882,6.6519685 17.911811,6.58267717 17.9464567,6.49606299 L18.2929134,5.42204724 L18.7779528,5.40472441 Z M5.80314961,10.688189 L4.33070866,10.688189 C4.24409449,10.896063 4.15748031,11.0866142 4.07086614,11.2598425 L5.54330709,11.2598425 L5.54330709,12.1433071 L4.9023622,12.1433071 L4.9023622,12.9401575 L5.7511811,12.9401575 L5.7511811,13.823622 L4.9023622,13.823622 L4.9023622,14.984252 C5.12755906,14.8456693 5.37007874,14.7070866 5.59527559,14.5511811 C5.61259843,14.880315 5.62992126,15.2267717 5.68188976,15.5905512 C4.7984252,16.1448819 4.31338583,16.4913386 4.20944882,16.6299213 L3.65511811,15.8503937 C3.81102362,15.6425197 3.8976378,15.4173228 3.8976378,15.1228346 L3.8976378,13.8409449 L3.01417323,13.8409449 L3.01417323,12.9574803 L3.8976378,12.9574803 L3.8976378,12.1606299 L3.60314961,12.1606299 C3.4992126,12.3338583 3.37795276,12.5070866 3.27401575,12.6629921 C3.18740157,12.2472441 3.08346457,11.8141732 2.96220472,11.3984252 C3.41259843,10.5669291 3.74173228,9.71811024 3.91496063,8.83464567 L4.9023622,9.04251969 C4.83307087,9.3023622 4.74645669,9.56220472 4.65984252,9.82204724 L5.80314961,9.82204724 L5.80314961,10.688189 Z M10.0992126,13.2692913 L10.7055118,14.1354331 L9.37165354,14.8110236 C9.77007874,15.1228346 10.2551181,15.3480315 10.8614173,15.4692913 C10.6535433,15.7984252 10.4456693,16.1448819 10.2377953,16.4913386 C9.45826772,16.2314961 8.86929134,15.8677165 8.43622047,15.3653543 L8.43622047,15.8677165 C7.43149606,16.1795276 6.72125984,16.4740157 6.30551181,16.7165354 L5.82047244,15.8850394 C5.97637795,15.6771654 6.04566929,15.4 6.04566929,15.0708661 L6.04566929,9.16377953 L10.3417323,9.16377953 L10.3417323,13.2692913 L10.0992126,13.2692913 Z M9.3023622,10.1338583 L7.08503937,10.1338583 L7.08503937,10.7748031 L9.3023622,10.7748031 L9.3023622,10.1338583 Z M9.3023622,12.2992126 L9.3023622,11.6582677 L7.08503937,11.6582677 L7.08503937,12.2992126 L9.3023622,12.2992126 Z M7.36220472,13.2692913 L7.08503937,13.2692913 L7.08503937,15.3133858 C7.41417323,15.192126 7.76062992,15.0535433 8.08976378,14.9322835 C7.77795276,14.4645669 7.53543307,13.9102362 7.36220472,13.2692913 Z M10.0472441,13.2692913 L8.4015748,13.2692913 C8.50551181,13.5984252 8.64409449,13.8755906 8.78267717,14.1181102 C9.21574803,13.8582677 9.63149606,13.5637795 10.0472441,13.2692913 Z M11.1732283,15.711811 L11,14.6551181 C11.1385827,14.6377953 11.2598425,14.6204724 11.415748,14.6031496 L11.415748,10.2204724 L11.0866142,10.2204724 L11.0866142,9.28503937 L14.4472441,9.28503937 L14.4472441,10.2204724 L14.1181102,10.2204724 L14.1181102,14.1874016 C14.2740157,14.1527559 14.4299213,14.1354331 14.5858268,14.1007874 C14.5511811,14.4299213 14.5165354,14.776378 14.4992126,15.1055118 C14.3779528,15.1228346 14.2566929,15.1401575 14.1181102,15.1748031 L14.1181102,16.5952756 L13.1653543,16.5952756 L13.1653543,15.3307087 C13.1653543,15.3480315 11.1732283,15.711811 11.1732283,15.711811 Z M12.3511811,11.0346457 L13.1653543,11.0346457 L13.1653543,10.2204724 L12.3511811,10.2204724 L12.3511811,11.0346457 Z M12.3511811,12.6976378 L13.1653543,12.6976378 L13.1653543,11.8834646 L12.3511811,11.8834646 L12.3511811,12.6976378 Z M13.1653543,14.3606299 L13.1653543,13.5637795 L12.3511811,13.5637795 L12.3511811,14.4992126 L13.1653543,14.3606299 Z M15.5385827,8.8519685 C15.815748,9.21574803 16.0755906,9.59685039 16.3007874,9.99527559 L15.5732283,10.3590551 L16.6299213,10.3590551 C16.9244094,9.85669291 17.184252,9.33700787 17.4094488,8.8 L18.4314961,9.23307087 L17.7385827,10.3590551 L18.5527559,10.3590551 L18.5527559,11.2944882 L16.9937008,11.2944882 L16.9937008,12.4031496 L18.7952756,12.4031496 L18.7952756,13.3385827 L17.1669291,13.3385827 C17.4614173,14.3606299 18.015748,15.088189 18.8472441,15.5559055 C18.6220472,15.9023622 18.4141732,16.2488189 18.223622,16.6125984 C17.4440945,16.0062992 16.8897638,15.1228346 16.5606299,13.9622047 C16.3527559,15.0708661 15.815748,15.9889764 14.9496063,16.6645669 C14.7070866,16.3354331 14.4472441,16.0409449 14.1700787,15.7291339 C15.0188976,15.2094488 15.5732283,14.3952756 15.815748,13.3212598 L14.3952756,13.3212598 L14.3952756,12.3858268 L15.9370079,12.3858268 C15.9370079,12.2472441 15.9543307,11.8834646 15.9543307,11.2771654 L14.5858268,11.2771654 L14.5858268,10.3417323 L15.3480315,10.3417323 C15.1574803,9.96062992 14.9496063,9.59685039 14.7070866,9.23307087 C14.7244094,9.26771654 15.5385827,8.8519685 15.5385827,8.8519685 Z" id="Shape" fill="#FFFFFF"></path>
                    <path d="M17.9811024,0.0173228346 L4.01889764,0.0173228346 C1.81889764,0.0173228346 0.0346456693,1.8015748 0.0346456693,4.0015748 L0.0346456693,17.9637795 C0.0346456693,20.1637795 1.81889764,21.9480315 4.01889764,21.9480315 L17.9811024,21.9480315 C19.9559055,21.9480315 21.584252,20.5102362 21.9133858,18.6393701 L21.9133858,18.5354331 L21.9826772,18.5354331 L21.9826772,3.98425197 C21.9826772,1.8015748 20.1984252,0.0173228346 17.9811024,0.0173228346 Z" id="Shape" fill="#034480"></path>
                    <path d="M16.6992126,0.0173228346 L11.9181102,21.9826772 L17.9984252,21.9826772 C19.9732283,21.9826772 21.6015748,20.5448819 21.9307087,18.6740157 L21.9307087,18.5700787 L22,18.5700787 L22,4.01889764 C22,1.81889764 20.215748,0.0346456693 18.015748,0.0346456693 C17.9811024,0.0173228346 16.6992126,0.0173228346 16.6992126,0.0173228346 Z" id="Shape" fill="#117C83"></path>
                    <path d="M9.14645669,0.0173228346 L4.01889764,0.0173228346 C1.81889764,0.0173228346 0.0346456693,1.8015748 0.0346456693,4.0015748 L0.0346456693,17.9637795 C0.0346456693,20.111811 1.71496063,21.8440945 3.84566929,21.9480315 L9.14645669,0.0173228346 Z" id="Shape" fill="#D23431"></path>
                    <path d="M9.68346457,11.6755906 L9.49291339,12.0393701 C9.45826772,12.1259843 9.40629921,12.1779528 9.37165354,12.1779528 C9.33700787,12.1952756 9.28503937,12.2125984 9.1984252,12.2125984 L9.09448819,12.2125984 L8.93858268,12.680315 L9.3023622,12.680315 C9.45826772,12.680315 9.59685039,12.6110236 9.66614173,12.576378 C9.73543307,12.5417323 9.75275591,12.5590551 9.80472441,12.5070866 L9.92598425,12.4031496 L11,12.4031496 L11.1559055,11.9181102 L10.3590551,11.9181102 L10.5149606,11.6582677 C10.4976378,11.6755906 9.68346457,11.6755906 9.68346457,11.6755906 Z M16.7165354,13.1307087 L17.5480315,13.1307087 L17.4094488,13.5291339 L16.5606299,13.5291339 L16.4220472,13.9622047 L17.1669291,13.9622047 L16.5952756,14.7244094 C16.5779528,14.776378 16.5259843,14.8110236 16.4740157,14.8283465 C16.4393701,14.8629921 16.3874016,14.880315 16.3354331,14.880315 L16.1275591,14.880315 L16.1968504,14.6897638 L16.0062992,14.6897638 L16.7511811,12.1952756 L16.976378,12.1779528 L17.0629921,11.8834646 L17.080315,12.1952756 C17.0629921,12.3685039 17.2015748,12.5417323 17.5653543,12.5070866 L17.9984252,12.5070866 L18.1370079,12.0393701 L17.9811024,12.0393701 C17.8771654,12.0393701 17.8425197,12.0220472 17.8425197,11.9700787 L17.8251969,11.6755906 L17.0629921,11.6755906 C16.8031496,11.6755906 16.0582677,11.6929134 15.9023622,11.7448819 C15.7291339,11.7968504 15.5212598,11.9354331 15.5212598,11.9354331 L15.607874,11.6755906 L14.8629921,11.6755906 L14.7070866,12.1779528 L13.9448819,14.7070866 L13.7889764,14.7070866 L13.6503937,15.1748031 L15.1055118,15.1748031 L15.0535433,15.3307087 L15.7811024,15.3307087 L15.8330709,15.1748031 L16.023622,15.1748031 L16.0409449,15.1228346 L15.9716535,15.3480315 L16.5086614,15.3480315 C16.7858268,15.3480315 16.9590551,15.2094488 17.080315,15.0535433 L17.4787402,14.5338583 L17.5653543,15.0708661 C17.5826772,15.1748031 17.6519685,15.2267717 17.703937,15.2440945 C17.7732283,15.2787402 17.8251969,15.3307087 17.8944882,15.3307087 C17.9811024,15.3480315 18.0330709,15.3480315 18.0677165,15.3480315 L18.3275591,15.3480315 L18.4834646,14.8283465 L18.3795276,14.8283465 C18.3102362,14.8283465 18.223622,14.8110236 18.2062992,14.7937008 C18.1889764,14.7590551 18.1889764,14.7244094 18.1716535,14.6724409 L18.0850394,14.1354331 L17.7385827,14.1354331 L17.8771654,13.9622047 L18.7259843,13.9622047 L18.8645669,13.5291339 L18.0850394,13.5291339 L18.223622,13.1307087 L19.0031496,13.1307087 L19.1590551,12.6629921 L16.8724409,12.6629921 L16.7165354,13.1307087 Z M15.296063,14.6724409 L14.7070866,14.6724409 L14.8629921,14.1181102 L15.4519685,14.1181102 L15.296063,14.6724409 Z M15.607874,13.5984252 C15.607874,13.5984252 15.4346457,13.615748 15.3133858,13.6503937 C15.1748031,13.6850394 14.9669291,13.8062992 14.9669291,13.8062992 L15.1574803,13.1480315 L15.7464567,13.1480315 C15.7464567,13.1307087 15.607874,13.5984252 15.607874,13.5984252 Z M15.5905512,12.6976378 C15.4692913,12.7322835 15.2614173,12.8362205 15.2614173,12.8362205 L15.4519685,12.1952756 L16.023622,12.1952756 L15.8850394,12.6456693 C15.8850394,12.6456693 15.711811,12.6629921 15.5905512,12.6976378 Z M9.57952756,14.7937008 L9.77007874,14.1354331 L10.5669291,14.1354331 L10.7228346,13.6503937 L9.92598425,13.6503937 L10.0645669,13.2519685 L10.8440945,13.2519685 L11,12.784252 L9.02519685,12.784252 L8.86929134,13.2692913 L9.31968504,13.2692913 L9.1984252,13.6677165 L8.7480315,13.6677165 L8.59212598,14.1527559 L9.04251969,14.1527559 L8.78267717,15.0188976 C8.7480315,15.1401575 8.8,15.1748031 8.83464567,15.2267717 C8.86929134,15.2787402 8.92125984,15.3133858 8.99055118,15.3307087 C9.07716535,15.3480315 9.14645669,15.3653543 9.1984252,15.3653543 L10.0992126,15.3653543 L10.2551181,14.8283465 L9.83937008,14.880315 C9.78740157,14.880315 9.56220472,14.8629921 9.57952756,14.7937008 Z M6.44409449,8.52283465 C6.32283465,8.52283465 6.11496063,8.55748031 5.94173228,8.64409449 C5.87244094,8.67874016 5.80314961,8.73070866 5.7511811,8.76535433 L5.82047244,8.55748031 L5.78582677,8.52283465 C5.38740157,8.60944882 5.31811024,8.62677165 4.95433071,8.66141732 L4.91968504,8.67874016 C4.88503937,9.02519685 4.8503937,9.28503937 4.69448819,9.97795276 C4.64251969,10.2377953 4.59055118,10.480315 4.52125984,10.7228346 L4.53858268,10.7574803 C4.91968504,10.7401575 5.00629921,10.7401575 5.33543307,10.7401575 L5.37007874,10.7055118 C5.40472441,10.4976378 5.40472441,10.4456693 5.50866142,10.0125984 C5.56062992,9.80472441 5.64724409,9.37165354 5.68188976,9.21574803 C5.76850394,9.18110236 5.83779528,9.14645669 5.90708661,9.14645669 C6.08031496,9.14645669 6.06299213,9.3023622 6.06299213,9.35433071 C6.01102362,9.59685039 5.97637795,9.83937008 5.90708661,10.0992126 L5.85511811,10.2897638 L5.7511811,10.7055118 L5.76850394,10.7401575 C6.13228346,10.7228346 6.23622047,10.7228346 6.5480315,10.7228346 L6.6,10.688189 C6.66929134,10.3590551 6.68661417,10.2724409 6.77322835,9.80472441 L6.82519685,9.59685039 C6.91181102,9.16377953 6.96377953,8.95590551 6.89448819,8.78267717 C6.80787402,8.57480315 6.6,8.52283465 6.44409449,8.52283465 Z M4.83307087,7.03307087 C4.20944882,7.01574803 4.03622047,7.01574803 3.96692913,6.9984252 C3.9496063,7.11968504 3.51653543,9.09448819 3.51653543,9.09448819 C3.41259843,9.49291339 3.36062992,9.78740157 3.11811024,9.96062992 C2.97952756,10.0645669 2.84094488,10.1165354 2.66771654,10.1165354 C2.39055118,10.1165354 2.21732283,9.96062992 2.2,9.7007874 L2.2,9.61417323 L2.28661417,9.07716535 C2.28661417,9.07716535 2.73700787,7.27559055 2.80629921,7.03307087 L2.80629921,6.9984252 C1.92283465,7.01574803 1.76692913,6.9984252 1.76692913,6.98110236 C1.76692913,6.9984252 1.73228346,7.11968504 1.73228346,7.11968504 L1.24724409,9.14645669 L1.19527559,9.31968504 L1.16062992,9.89133858 C1.16062992,10.0472441 1.19527559,10.2031496 1.26456693,10.3244094 C1.47244094,10.688189 2.06141732,10.7574803 2.40787402,10.7574803 C2.85826772,10.7574803 3.25669291,10.6535433 3.51653543,10.4976378 C3.98425197,10.2204724 4.12283465,9.77007874 4.24409449,9.38897638 L4.29606299,9.1984252 C4.29606299,9.1984252 4.74645669,7.32755906 4.83307087,7.08503937 L4.83307087,7.03307087 Z M12.888189,13.9622047 C12.8708661,13.9968504 12.8535433,14.0141732 12.8362205,14.0314961 C12.8188976,14.0488189 12.7669291,14.0488189 12.7149606,14.0488189 L12.5590551,14.0488189 L12.576378,13.7716535 L11.9007874,13.7716535 L11.8834646,14.8110236 L11.415748,14.8629921 C11.3637795,14.8629921 11.3291339,14.8283465 11.311811,14.8110236 C11.2771654,14.776378 11.2944882,14.7244094 11.3291339,14.6377953 L11.6409449,13.6330709 L12.6976378,13.6330709 C12.8535433,13.6330709 12.9748031,13.615748 13.0440945,13.615748 C13.1307087,13.615748 13.2,13.5811024 13.303937,13.5291339 C13.407874,13.4598425 13.4425197,13.407874 13.4944882,13.3559055 C13.5464567,13.2866142 13.615748,13.1480315 13.6677165,12.9228346 L14.0488189,11.6582677 L12.9401575,11.6582677 C12.9401575,11.6582677 12.5937008,11.7275591 12.4551181,11.7795276 C12.3165354,11.8314961 12.0913386,12.0047244 12.0913386,12.0047244 L12.1952756,11.6582677 L11.5023622,11.6582677 L10.5322835,14.8629921 C10.4976378,14.984252 10.4629921,15.0708661 10.4629921,15.1228346 C10.4629921,15.192126 10.5496063,15.2440945 10.6015748,15.2787402 C10.6708661,15.3307087 10.7401575,15.3307087 10.8267717,15.3307087 C10.9133858,15.3480315 11.0346457,15.3480315 11.207874,15.3480315 L11.7275591,15.3480315 L11.8834646,14.8283465 L11.8834646,15.088189 C11.8834646,15.192126 11.9007874,15.2267717 11.9700787,15.2787402 C12.0566929,15.3480315 12.2645669,15.3480315 12.5590551,15.3480315 L12.992126,15.3480315 L13.1480315,14.8456693 L12.784252,14.8629921 L12.6629921,14.8629921 C12.6456693,14.8456693 12.6283465,14.8456693 12.6110236,14.8283465 C12.5937008,14.8110236 12.576378,14.8283465 12.576378,14.7244094 L12.576378,14.3779528 L12.9574803,14.3606299 C13.1653543,14.3606299 13.2519685,14.2913386 13.3385827,14.2220472 C13.4251969,14.1527559 13.4425197,14.0834646 13.4771654,13.9968504 L13.5464567,13.6850394 L12.992126,13.719685 C12.9574803,13.7370079 12.888189,13.9622047 12.888189,13.9622047 Z M12.0566929,12.1779528 L13.2,12.1779528 L13.1133858,12.4551181 C13.1133858,12.4551181 12.576378,12.4551181 12.4724409,12.4724409 C12.0913386,12.5417323 11.8834646,12.7322835 11.8834646,12.7322835 L12.0566929,12.1779528 Z M11.8488189,12.9401575 L12.9748031,12.9401575 L12.9055118,13.1653543 C12.9055118,13.1653543 12.8708661,13.1480315 12.7496063,13.1653543 L11.7622047,13.1653543 L11.8488189,12.9401575 Z M8.78267717,10.688189 C8.93858268,10.7574803 9.14645669,10.7748031 9.28503937,10.7748031 C9.6488189,10.7748031 10.0125984,10.6708661 10.2897638,10.376378 C10.4629921,10.1511811 10.5669291,9.80472441 10.6015748,9.6488189 C10.7228346,9.18110236 10.6362205,8.93858268 10.5149606,8.81732283 C10.3590551,8.60944882 10.0645669,8.54015748 9.77007874,8.54015748 C9.59685039,8.54015748 9.16377953,8.55748031 8.83464567,8.86929134 C8.59212598,9.07716535 8.48818898,9.38897638 8.41889764,9.66614173 C8.36692913,9.96062992 8.2976378,10.480315 8.78267717,10.688189 Z M9.23307087,9.68346457 C9.31968504,9.31968504 9.40629921,9.00787402 9.66614173,9.00787402 C9.83937008,9.02519685 9.85669291,9.2503937 9.78740157,9.61417323 C9.77007874,9.7007874 9.7007874,9.99527559 9.61417323,10.1165354 C9.54488189,10.2204724 9.45826772,10.2724409 9.38897638,10.2724409 C9.37165354,10.2724409 9.21574803,10.2724409 9.21574803,10.0472441 C9.1984252,9.92598425 9.21574803,9.80472441 9.23307087,9.68346457 Z M7.31023622,9.09448819 L7.27559055,9.12913386 C7.25826772,9.26771654 7.24094488,9.37165354 7.22362205,9.52755906 C7.18897638,9.68346457 7.15433071,9.83937008 7.1023622,10.0818898 C7.06771654,10.2551181 7.03307087,10.3244094 7.01574803,10.3937008 C6.98110236,10.4629921 6.96377953,10.5322835 6.91181102,10.7055118 L6.94645669,10.7401575 C7.11968504,10.7228346 7.24094488,10.7228346 7.36220472,10.7228346 L7.79527559,10.7228346 L7.79527559,10.6708661 L7.81259843,10.6535433 C7.84724409,10.4976378 7.84724409,10.4629921 7.86456693,10.376378 C7.88188976,10.2897638 7.91653543,10.1858268 7.98582677,9.87401575 L8.08976378,9.42362205 L8.19370079,8.97322835 L8.19370079,8.93858268 C8.00314961,8.97322835 7.88188976,9.00787402 7.74330709,9.02519685 C7.62204724,9.04251969 7.48346457,9.05984252 7.31023622,9.09448819 Z M21.2377953,8.52283465 C20.8393701,8.60944882 20.7874016,8.60944882 20.4409449,8.66141732 L20.4062992,8.69606299 L20.4062992,8.71338583 C20.1464567,9.31968504 20.1464567,9.18110236 19.9385827,9.66614173 L19.9385827,9.59685039 L19.8866142,8.55748031 L19.8519685,8.52283465 C19.4535433,8.60944882 19.4362205,8.60944882 19.0724409,8.66141732 L19.0377953,8.69606299 L19.0377953,8.7480315 C19.0897638,8.99055118 19.0724409,8.92125984 19.1244094,9.3023622 C19.1417323,9.47559055 19.176378,9.66614173 19.1937008,9.85669291 C19.2283465,10.1685039 19.2629921,10.3070866 19.2976378,10.7748031 C19.0551181,11.1905512 18.9858268,11.3464567 18.7433071,11.7102362 L18.7606299,11.7448819 C19.1244094,11.7275591 19.2110236,11.7275591 19.488189,11.7275591 L19.5574803,11.6582677 C19.7480315,11.207874 21.3070866,8.55748031 21.3070866,8.55748031 L21.2377953,8.52283465 Z M16.2141732,9.71811024 C16.1448819,10.0125984 16.0582677,10.5322835 16.5606299,10.7228346 C16.6992126,10.792126 16.8551181,10.8094488 16.9937008,10.8094488 C17.1322835,10.792126 17.2708661,10.7228346 17.3748031,10.6362205 L17.3401575,10.7401575 L17.3574803,10.7748031 C17.7212598,10.7574803 17.807874,10.7574803 18.1889764,10.7574803 L18.2409449,10.7228346 C18.2929134,10.3937008 18.3448819,10.0818898 18.4834646,9.45826772 L18.6913386,8.57480315 L18.6740157,8.54015748 C18.3795276,8.60944882 18.1023622,8.66141732 17.807874,8.69606299 L17.7732283,8.71338583 L17.7559055,8.83464567 C17.6866142,8.73070866 17.6,8.66141732 17.496063,8.60944882 C17.3401575,8.54015748 16.9417323,8.62677165 16.6125984,8.93858268 C16.3874016,9.12913386 16.2834646,9.42362205 16.2141732,9.71811024 Z M17.0110236,9.71811024 C17.0976378,9.35433071 17.184252,9.05984252 17.4440945,9.05984252 C17.6,9.07716535 17.6866142,9.21574803 17.6692913,9.45826772 C17.6519685,9.51023622 17.6346457,9.57952756 17.6173228,9.6488189 C17.5826772,9.77007874 17.5653543,9.89133858 17.5307087,10.0299213 C17.5133858,10.0818898 17.496063,10.1165354 17.4614173,10.1685039 C17.392126,10.2724409 17.2535433,10.3070866 17.1496063,10.3070866 C17.1322835,10.3070866 16.976378,10.3070866 16.976378,10.0818898 C16.9590551,9.96062992 16.976378,9.83937008 17.0110236,9.71811024 Z M14.3086614,9.94330709 C14.3086614,9.94330709 14.4299213,9.45826772 14.4472441,9.44094488 C14.4472441,9.44094488 14.4818898,9.38897638 14.5165354,9.37165354 L14.5685039,9.37165354 C15.0708661,9.37165354 15.6425197,9.37165354 16.0929134,9.04251969 C16.4047244,8.81732283 16.5952756,8.48818898 16.6992126,8.07244094 C16.7165354,7.96850394 16.7511811,7.86456693 16.7511811,7.72598425 C16.7511811,7.57007874 16.7165354,7.41417323 16.6299213,7.29291339 C16.4047244,6.98110236 15.9370079,6.98110236 15.4173228,6.98110236 L15.1574803,6.98110236 C14.4818898,6.9984252 14.2047244,6.98110236 14.1181102,6.96377953 C14.1007874,6.9984252 14.1007874,7.0503937 14.0834646,7.1023622 L13.823622,8.22834646 C13.823622,8.22834646 13.2519685,10.6015748 13.2173228,10.7228346 L14.1527559,10.7228346 C14.1700787,10.6015748 14.3086614,9.94330709 14.3086614,9.94330709 Z M14.6031496,8.76535433 L14.8629921,7.65669291 L14.8629921,7.55275591 L14.9669291,7.57007874 C14.9669291,7.57007874 15.4866142,7.62204724 15.503937,7.62204724 C15.711811,7.69133858 15.7984252,7.88188976 15.7464567,8.15905512 C15.6944882,8.4015748 15.5385827,8.60944882 15.3133858,8.71338583 C15.1401575,8.8 14.9322835,8.81732283 14.7244094,8.81732283 L14.5858268,8.81732283 L14.6031496,8.76535433 Z M8.19370079,8.36692913 C8.02047244,8.26299213 7.72598425,8.2976378 7.5007874,8.43622047 C7.29291339,8.57480315 7.27559055,8.78267717 7.43149606,8.88661417 C7.60472441,9.00787402 7.91653543,8.97322835 8.14173228,8.81732283 C8.3496063,8.66141732 8.36692913,8.47086614 8.19370079,8.36692913 Z M11.4850394,10.7055118 L11.519685,10.688189 C11.5543307,10.480315 11.5716535,10.4283465 11.6582677,9.99527559 C11.7102362,9.78740157 11.7968504,9.35433071 11.8314961,9.1984252 C11.9007874,9.16377953 11.9874016,9.12913386 12.0566929,9.12913386 C12.2299213,9.12913386 12.2125984,9.28503937 12.2125984,9.33700787 C12.1606299,9.57952756 12.1259843,9.82204724 12.0566929,10.0818898 L12.0047244,10.2724409 L11.9007874,10.688189 L11.9181102,10.7228346 C12.2818898,10.7055118 12.3858268,10.7055118 12.6976378,10.7055118 L12.784252,10.6708661 C12.8362205,10.3417323 12.8535433,10.2551181 12.9401575,9.78740157 L12.992126,9.57952756 C13.0787402,9.14645669 13.1307087,8.93858268 13.0614173,8.76535433 C12.9748031,8.57480315 12.784252,8.52283465 12.6110236,8.52283465 C12.4897638,8.52283465 12.2818898,8.55748031 12.1086614,8.64409449 C12.0393701,8.67874016 11.9700787,8.73070866 11.9181102,8.76535433 L11.9700787,8.55748031 L11.9354331,8.50551181 C11.5370079,8.59212598 11.4677165,8.60944882 11.103937,8.66141732 L11.0692913,8.67874016 C11.0346457,9.02519685 10.9826772,9.28503937 10.8440945,9.97795276 C10.7748031,10.2204724 10.7228346,10.480315 10.6708661,10.7228346 L10.688189,10.7574803 C11.0519685,10.7055118 11.1559055,10.7055118 11.4850394,10.7055118 Z" id="Shape" fill="#FFFFFF"></path>
                    <path d="M19.488189,11.6755906 L19.176378,12.1952756 C19.0724409,12.3685039 18.8992126,12.5070866 18.6220472,12.5070866 L18.1543307,12.4897638 L18.2929134,12.0393701 L18.3968504,12.0393701 C18.4488189,12.0393701 18.4834646,12.0393701 18.5181102,12.0220472 C18.5354331,12.0047244 18.5700787,11.9874016 18.5874016,11.9700787 L18.7606299,11.6929134 L19.488189,11.6755906 Z" id="Shape" fill="#FFFFFF"></path>
                </g>
            </g>
        </g>
    </g>
</svg>