<?xml version="1.0" encoding="UTF-8"?>
<svg width="20px" height="22px" viewBox="0 0 20 22" version="1.1" xmlns="http://www.w3.org/2000/svg" xmlns:xlink="http://www.w3.org/1999/xlink">
    <!-- Generator: Sketch 49.1 (51147) - http://www.bohemiancoding.com/sketch -->
    <title>Group</title>
    <desc>Created with Sketch.</desc>
    <defs></defs>
    <g id="Page-1" stroke="none" stroke-width="1" fill="none" fill-rule="evenodd">
        <g id="我的-账户设置" transform="translate(-18.000000, -227.000000)" stroke="#007AFF">
            <g id="Group-7-Copy" transform="translate(0.000000, 227.000000)">
                <g id="Group-3" transform="translate(18.000000, 0.000000)">
                    <path d="M0.5,8.5 L19.5,8.5 L19.5,5 C19.5,4.17157288 18.8284271,3.5 18,3.5 L2,3.5 C1.17157288,3.5 0.5,4.17157288 0.5,5 L0.5,8.5 Z" id="Combined-Shape"></path>
                    <path d="M0.5,11.5 L0.5,17 C0.5,17.8284271 1.17157288,18.5 2,18.5 L18,18.5 C18.8284271,18.5 19.5,17.8284271 19.5,17 L19.5,11.5 L0.5,11.5 Z" id="Combined-Shape-Copy-3"></path>
                    <path d="M3.5,14.5 L5,14.5 M7,14.5 L12.5,14.5" id="Line" stroke-linecap="round"></path>
                </g>
            </g>
        </g>
    </g>
</svg>