<?xml version="1.0" encoding="UTF-8"?>
<svg width="18px" height="18px" viewBox="0 0 18 18" version="1.1" xmlns="http://www.w3.org/2000/svg" xmlns:xlink="http://www.w3.org/1999/xlink">
    <!-- Generator: Sketch 49.1 (51147) - http://www.bohemiancoding.com/sketch -->
    <title>Shape</title>
    <desc>Created with Sketch.</desc>
    <defs></defs>
    <g id="Page-1" stroke="none" stroke-width="1" fill="none" fill-rule="evenodd">
        <g id="我的" transform="translate(-143.000000, -77.000000)" fill="#F6E205" fill-rule="nonzero">
            <g id="Group" transform="translate(0.000000, 58.000000)">
                <g id="男" transform="translate(143.000000, 19.000000)">
                    <g id="-.46">
                        <path d="M15.1106518,1.88937182 C13.8923368,0.67100972 12.2724304,2.35897247e-05 10.5494134,0 C8.82639628,0 7.20651347,0.67098613 5.98817496,1.88932464 C4.76978926,3.10768675 4.09885031,4.72756955 4.09885031,6.45061023 C4.09882672,7.85493013 4.54467252,9.1906747 5.36920417,10.2963959 L4.25966147,11.405915 L1.61079487,8.75704838 C1.24229978,8.38855329 0.644866408,8.38855329 0.276371318,8.75704838 C-0.0921237725,9.12551988 -0.0921237725,9.72297684 0.276371318,10.0914719 L2.92523792,12.7403385 L1.8976931,13.7678834 C1.5292216,14.1363549 1.5292216,14.7338118 1.8976931,15.1022833 C2.26621178,15.470802 2.86364515,15.4707784 3.23214024,15.1022833 L4.25966147,14.0747621 L6.90855166,16.7236287 C7.27702316,17.0921238 7.87445653,17.0921238 8.24295162,16.7236287 C8.6114703,16.3551336 8.6114703,15.7577002 8.24295162,15.3892051 L5.59408502,12.7403621 L6.70362772,11.630843 C7.80937248,12.4553511 9.14509346,12.9012205 10.5494134,12.9012205 C12.2724304,12.9012205 13.8922897,12.2302343 15.1106518,11.0118722 C16.3290139,9.79351012 17,8.17362731 17,6.45061023 C17,4.72759314 16.3289903,3.10768675 15.1106518,1.88937182 Z M13.7762282,9.67742508 C12.9143304,10.5393229 11.7683416,11.0140189 10.5494134,11.0140189 C9.33048511,11.0140189 8.18451987,10.5393229 7.32259851,9.67742508 C6.46067714,8.81552731 5.9860047,7.66953848 5.9860047,6.45061023 C5.98602829,5.23163479 6.46067714,4.08566955 7.32259851,3.22377178 C8.18449628,2.36185042 9.33048511,1.88717798 10.5494134,1.88717798 C11.7683416,1.88720157 12.9143304,2.36187401 13.7762282,3.22379537 C14.638126,4.08569314 15.112822,5.23165838 15.112822,6.45058664 C15.112822,7.66953848 14.6381732,8.81550372 13.7762282,9.67742508 Z" id="Shape"></path>
                    </g>
                </g>
            </g>
        </g>
    </g>
</svg>