<?xml version="1.0" encoding="UTF-8"?>
<svg width="18px" height="20px" viewBox="0 0 18 20" version="1.1" xmlns="http://www.w3.org/2000/svg" xmlns:xlink="http://www.w3.org/1999/xlink">
    <!-- Generator: Sketch 49.2 (51160) - http://www.bohemiancoding.com/sketch -->
    <title>我的图标</title>
    <desc>Created with Sketch.</desc>
    <defs></defs>
    <g id="Symbols" stroke="none" stroke-width="1" fill="none" fill-rule="evenodd">
        <g id="我的-copy" transform="translate(-1.000000, 1.000000)" fill="#007AFF" stroke="#007AFF">
            <g id="我的">
                <path d="M17.2099359,18 C13.2044369,18 5.99453871,18 2.79013952,18 C1.98903972,18 1.95074866,18.0017921 2.02676036,17.2186667 C2.41996101,13.1676404 5.83966495,10 10.0000377,10 C14.1598161,10 17.5790821,13.1661668 17.9731463,17.2169303 C18.0493475,18.0002363 18.0110357,18 17.2099359,18 Z M10,8 C7.790861,8 6,6.209139 6,4 C6,1.790861 7.790861,0 10,0 C12.209139,0 14,1.790861 14,4 C14,6.209139 12.209139,8 10,8 Z" id="我的图标"></path>
            </g>
        </g>
    </g>
</svg>