<?xml version="1.0" encoding="UTF-8"?>
<svg width="20px" height="22px" viewBox="0 0 20 22" version="1.1" xmlns="http://www.w3.org/2000/svg" xmlns:xlink="http://www.w3.org/1999/xlink">
    <!-- Generator: Sketch 49.2 (51160) - http://www.bohemiancoding.com/sketch -->
    <title>首页图标</title>
    <desc>Created with Sketch.</desc>
    <defs></defs>
    <g id="Symbols" stroke="none" stroke-width="1" fill="none" fill-rule="evenodd">
        <g id="首页" transform="translate(0.000000, 1.000000)" stroke="#007AFF">
            <g id="首页图标">
                <path d="M12.9998656,15.9711919 C12.9844045,14.3276047 11.6472424,13 10.0000016,13 C8.36239442,13 7.03124968,14.3121215 7.00054422,15.9423876 L6.99999896,19 C6.99999896,19.5522847 6.55228371,20 5.99999896,20 L2,20 C1.44771525,20 1,19.5522847 1,19 L1,15 C1,14.9991566 1.00000104,14.9983134 1.00000313,14.9974705 L1.00000313,9 C1.00000313,8.02868652 0.990614799,8.016031 2.00000296,7 C2.6729284,6.322646 4.76929669,4.21028774 8.28910784,0.662925244 C9.23400835,-0.220975081 10.7659948,-0.220975081 11.7108953,0.662925244 C15.2369653,4.22097508 17.3333336,6.33333333 18.0000002,7 C19,8 19,8 19,9 C19,9.6504065 19,11.9837398 19,16 L19,19 C19,19.5522847 18.5522847,20 18,20 L14,20 C13.4482022,20 13.0007895,19.5530738 13.000001,19.0014605 L13.000001,15.9999995 C13.000001,15.999578 13.000001,15.9991565 13.0000008,15.9987351 C13.0000122,15.9895252 13.0001481,15.9803444 13.0004069,15.9711945 Z"></path>
            </g>
        </g>
    </g>
</svg>