<?xml version="1.0" encoding="UTF-8"?>
<svg width="20px" height="22px" viewBox="0 0 20 22" version="1.1" xmlns="http://www.w3.org/2000/svg" xmlns:xlink="http://www.w3.org/1999/xlink">
    <!-- Generator: Sketch 49.2 (51160) - http://www.bohemiancoding.com/sketch -->
    <title>行情图标</title>
    <desc>Created with Sketch.</desc>
    <defs></defs>
    <g id="Symbols" stroke="none" stroke-width="1" fill="none" fill-rule="evenodd">
        <g id="行情-copy" transform="translate(0.000000, 1.000000)" stroke="#007AFF">
            <g id="行情">
                <path d="M2,18 L18,18 C18.5522847,18 19,18.4477153 19,19 C19,19.5522847 18.5522847,20 18,20 L2,20 C1.44771525,20 1,19.5522847 1,19 C1,18.4477153 1.44771525,18 2,18 Z M2,8 L4,8 C4.55228475,8 5,8.44771525 5,9 L5,15 C5,15.5522847 4.55228475,16 4,16 L2,16 C1.44771525,16 1,15.5522847 1,15 L1,9 C1,8.44771525 1.44771525,8 2,8 Z M9,0 L11,0 C11.5522847,-1.01453063e-16 12,0.44771525 12,1 L12,15 C12,15.5522847 11.5522847,16 11,16 L9,16 C8.44771525,16 8,15.5522847 8,15 L8,1 C8,0.44771525 8.44771525,1.01453063e-16 9,0 Z M16,4 L18,4 C18.5522847,4 19,4.44771525 19,5 L19,15 C19,15.5522847 18.5522847,16 18,16 L16,16 C15.4477153,16 15,15.5522847 15,15 L15,5 C15,4.44771525 15.4477153,4 16,4 Z" id="行情图标"></path>
            </g>
        </g>
    </g>
</svg>