<?xml version="1.0" encoding="UTF-8"?>
<svg width="18px" height="12px" viewBox="0 0 18 12" version="1.1" xmlns="http://www.w3.org/2000/svg" xmlns:xlink="http://www.w3.org/1999/xlink">
    <!-- Generator: Sketch 49.1 (51147) - http://www.bohemiancoding.com/sketch -->
    <title>隐藏图标 copy</title>
    <desc>Created with Sketch.</desc>
    <defs></defs>
    <g id="Page-1" stroke="none" stroke-width="1" fill="none" fill-rule="evenodd">
        <g id="修改密码" transform="translate(-313.000000, -165.000000)">
            <g id="隐藏图标-copy" transform="translate(313.000000, 165.000000)">
                <path d="M1,4 C3.38781467,6.66666667 6.05448133,8 9,8 C11.9455187,8 14.6121853,6.66666667 17,4" id="Oval-5" stroke="#007AFF" stroke-linecap="round"></path>
                <rect id="Rectangle-6" fill="#007AFF" x="9" y="8" width="1" height="3" rx="0.5"></rect>
                <rect id="Rectangle-6-Copy" fill="#007AFF" transform="translate(6.752876, 9.064036) rotate(10.000000) translate(-6.752876, -9.064036) " x="6.25287614" y="7.56403572" width="1" height="3" rx="0.5"></rect>
                <rect id="Rectangle-6-Copy-3" fill="#007AFF" transform="translate(4.025502, 8.078079) rotate(22.000000) translate(-4.025502, -8.078079) " x="3.52550182" y="6.57807908" width="1" height="3" rx="0.5"></rect>
                <rect id="Rectangle-6-Copy-4" fill="#007AFF" transform="translate(15.025502, 7.578079) scale(-1, 1) rotate(22.000000) translate(-15.025502, -7.578079) " x="14.5255018" y="6.07807908" width="1" height="3" rx="0.5"></rect>
                <rect id="Rectangle-6-Copy-2" fill="#007AFF" transform="translate(12.252876, 9.064036) scale(-1, 1) rotate(10.000000) translate(-12.252876, -9.064036) " x="11.7528761" y="7.56403572" width="1" height="3" rx="0.5"></rect>
            </g>
        </g>
    </g>
</svg>