<?xml version="1.0" encoding="UTF-8"?>
<svg width="46px" height="46px" viewBox="0 0 46 46" version="1.1" xmlns="http://www.w3.org/2000/svg" xmlns:xlink="http://www.w3.org/1999/xlink">
    <!-- Generator: Sketch 49.1 (51147) - http://www.bohemiancoding.com/sketch -->
    <title>盈利榜图标</title>
    <desc>Created with Sketch.</desc>
    <defs></defs>
    <g id="Page-1" stroke="none" stroke-width="1" fill="none" fill-rule="evenodd">
        <g id="首页" transform="translate(-261.000000, -236.000000)">
            <g id="盈利榜" transform="translate(261.000000, 236.000000)">
                <g id="盈利榜图标">
                    <circle id="盈利榜图标底板" fill="#FF999E" cx="23" cy="23" r="23"></circle>
                    <rect stroke="#FFFFFF" transform="translate(33.836540, 19.143627) rotate(-25.000000) translate(-33.836540, -19.143627) " x="30.3365403" y="19.1436269" width="7" height="1" rx="0.5"></rect>
                    <rect stroke="#FFFFFF" transform="translate(12.163460, 19.143627) scale(-1, 1) rotate(-25.000000) translate(-12.163460, -19.143627) " x="8.66345972" y="19.1436269" width="7" height="1" rx="0.5"></rect>
                    <path d="M28,23 L28,35.6966923 C28,36.547898 27.5522847,37.2379365 27,37.2379365 C26.7032202,37.2379365 26.4217725,37.0347651 26.2317787,36.6833728 L23,30.7062207 L19.7682213,36.6833728 C19.4146572,37.3372871 18.7840925,37.4256375 18.3598156,36.8807089 C18.131823,36.587882 18,36.1541025 18,35.6966923 L18,23" fill="#FFFFFF"></path>
                    <path d="M22.5302935,27.2323866 L20.4876023,28.3192021 C19.6210726,28.78024 18.5448664,28.4515238 18.0838286,27.5849941 C17.9568632,27.3463602 17.8860038,27.0819092 17.876642,26.8117635 L17.7965063,24.4993333 C17.7849863,24.1669071 17.6089293,23.8619675 17.3267998,23.6857778 L15.3642443,22.460163 C14.531709,21.9402452 14.2782824,20.8438653 14.7982003,20.0113299 C14.9413806,19.7820578 15.1349722,19.5884661 15.3642443,19.4452858 L17.3267998,18.2196711 C17.6089293,18.0434814 17.7849863,17.7385418 17.7965063,17.4061156 L17.876642,15.0936854 C17.9106364,14.1127297 18.733416,13.3450659 19.7143717,13.3790602 C19.9845174,13.388422 20.2489684,13.4592814 20.4876023,13.5862468 L22.5302935,14.6730623 C22.8239431,14.8292987 23.1760569,14.8292987 23.4697065,14.6730623 L25.5123977,13.5862468 C26.3789274,13.1252089 27.4551336,13.453925 27.9161714,14.3204548 C28.0431368,14.5590886 28.1139962,14.8235397 28.123358,15.0936854 L28.2034937,17.4061156 C28.2150137,17.7385418 28.3910707,18.0434814 28.6732002,18.2196711 L30.6357557,19.4452858 C31.468291,19.9652037 31.7217176,21.0615836 31.2017997,21.894119 C31.0586194,22.1233911 30.8650278,22.3169827 30.6357557,22.460163 L28.6732002,23.6857778 C28.3910707,23.8619675 28.2150137,24.1669071 28.2034937,24.4993333 L28.123358,26.8117635 C28.0893636,27.7927192 27.266584,28.560383 26.2856283,28.5263886 C26.0154826,28.5170269 25.7510316,28.4461674 25.5123977,28.3192021 L23.4697065,27.2323866 C23.1760569,27.0761501 22.8239431,27.0761501 22.5302935,27.2323866 Z" stroke="#FF999E" fill="#FFFFFF" transform="translate(23.000000, 20.952724) rotate(-30.000000) translate(-23.000000, -20.952724) "></path>
                    <circle fill="#FF999E" cx="23" cy="21" r="2"></circle>
                </g>
            </g>
        </g>
    </g>
</svg>