<?xml version="1.0" encoding="UTF-8"?>
<svg width="46px" height="46px" viewBox="0 0 46 46" version="1.1" xmlns="http://www.w3.org/2000/svg" xmlns:xlink="http://www.w3.org/1999/xlink">
    <!-- Generator: Sketch 49.1 (51147) - http://www.bohemiancoding.com/sketch -->
    <title>新手学堂图标</title>
    <desc>Created with Sketch.</desc>
    <defs></defs>
    <g id="Page-1" stroke="none" stroke-width="1" fill="none" fill-rule="evenodd">
        <g id="首页" transform="translate(-136.000000, -236.000000)">
            <g id="新手学堂" transform="translate(136.000000, 236.000000)">
                <g id="新手学堂图标">
                    <circle id="新手学堂图标底板" fill="#FFD199" cx="23" cy="23" r="23"></circle>
                    <rect stroke="#FFFFFF" x="33.5" y="20.5" width="1" height="8.33333333" rx="0.5"></rect>
                    <circle stroke="#FFFFFF" cx="33.5" cy="29.5" r="1"></circle>
                    <path d="M31.1667191,20 C31.1667191,20 31.1667191,20 31.1667191,20 L31.1667191,29.1731041 C31.1667175,29.5776618 30.9272956,29.9490011 30.544685,30.1378682 C28.0297908,31.3792894 25.5148967,32 23.0000025,32 C20.4851105,32 17.9702184,31.3792905 15.4553264,30.1378714 L15.4553345,30.1378569 C15.0727428,29.9489992 14.8333333,29.5776779 14.8333333,29.1731402 L14.8333333,20" fill="#FFFFFF"></path>
                    <path d="M14.528626,8.9111606 L27.9401046,12.7153137 C28.1069528,12.7626401 28.2373599,12.8930472 28.2846863,13.0598954 L32.0888394,26.471374 C32.1641942,26.737036 32.0099197,27.0134846 31.7442577,27.0888394 C31.655056,27.1141414 31.5605758,27.1141414 31.471374,27.0888394 L18.0598954,23.2846863 C17.8930472,23.2373599 17.7626401,23.1069528 17.7153137,22.9401046 L13.9111606,9.52862597 C13.8358058,9.26296402 13.9900803,8.98651536 14.2557423,8.9111606 C14.344944,8.88585862 14.4394242,8.88585862 14.528626,8.9111606 Z" stroke="#FFD199" fill="#FFFFFF" transform="translate(23.000000, 18.000000) rotate(-45.000000) translate(-23.000000, -18.000000) "></path>
                </g>
            </g>
        </g>
    </g>
</svg>