<?xml version="1.0" encoding="UTF-8"?>
<svg width="18px" height="18px" viewBox="0 0 18 18" version="1.1" xmlns="http://www.w3.org/2000/svg" xmlns:xlink="http://www.w3.org/1999/xlink">
    <!-- Generator: Sketch 49.1 (51147) - http://www.bohemiancoding.com/sketch -->
    <title>Shape</title>
    <desc>Created with Sketch.</desc>
    <defs></defs>
    <g id="Page-1" stroke="none" stroke-width="1" fill="none" fill-rule="evenodd">
        <g id="我的" transform="translate(-143.000000, -77.000000)" fill="#F6E205" fill-rule="nonzero">
            <g id="Group" transform="translate(0.000000, 58.000000)">
                <g id="男" transform="translate(143.000000, 19.000000)">
                    <path d="M16.986337,0.900191375 L16.986337,0.899137729 C16.986337,0.8831825 16.9845308,0.867528333 16.9836276,0.851573125 C16.982875,0.837424167 16.9827245,0.823124667 16.9813698,0.809126208 C16.9795635,0.792568896 16.9765531,0.776764208 16.9738437,0.760507958 C16.9723385,0.751025146 16.9712849,0.741391792 16.9694786,0.731758458 L16.9685755,0.725587083 L16.9675219,0.719716771 C16.9642104,0.703159458 16.9592432,0.687354771 16.9550286,0.6710985 C16.9517172,0.65845475 16.9490078,0.645509938 16.9452448,0.633167229 C16.939826,0.616158354 16.9330526,0.599450542 16.9267307,0.582742708 L16.9210109,0.566938021 L16.9175489,0.557455188 L16.9148395,0.55068175 C16.907464,0.533371833 16.8990348,0.516814542 16.8906057,0.500106708 C16.8859395,0.490623896 16.8818755,0.480990542 16.8767577,0.471808771 C16.8677265,0.455100937 16.8574911,0.439446771 16.8475567,0.423491562 C16.8445463,0.418825417 16.8419874,0.413858229 16.838977,0.409493104 C16.8371707,0.406783729 16.835816,0.403923833 16.8340098,0.401214458 L16.8316015,0.397601958 C16.821065,0.381947771 16.8094749,0.367497771 16.7980353,0.352746708 C16.7917134,0.344618583 16.7859936,0.336038875 16.7795212,0.328061271 C16.7679311,0.314213354 16.7552873,0.301118021 16.7429446,0.287872187 C16.7355691,0.279894583 16.7287957,0.271615917 16.7212696,0.264089875 L16.7199149,0.262735187 L16.7196139,0.262283625 L16.7181087,0.261079458 C16.7071206,0.250091437 16.6952295,0.240157042 16.6833383,0.229620583 C16.6744576,0.2217935 16.6661789,0.213364312 16.6568466,0.20568775 C16.6443534,0.195452333 16.6308065,0.186270542 16.6177112,0.176486687 C16.6076263,0.168960646 16.5978424,0.160983021 16.5874565,0.153908542 C16.5850956,0.152592501 16.5827859,0.151186611 16.5805325,0.149693958 L16.569394,0.143221562 C16.5615883,0.138207341 16.5536584,0.133389161 16.5456117,0.128771542 C16.5347742,0.122148625 16.5242377,0.115074146 16.5129486,0.108902792 C16.4987997,0.101226229 16.4838981,0.0949043542 16.4692975,0.087980375 C16.4575569,0.0824111042 16.4461173,0.0760892292 16.4340756,0.0711220208 C16.4309147,0.0696168125 16.4273022,0.0685631667 16.4238402,0.067359 C16.4199267,0.0657032708 16.4157121,0.0644991042 16.4117985,0.0626928542 L16.3905751,0.0550162917 C16.3774798,0.0503501458 16.3646855,0.0449313958 16.3511386,0.0405662708 C16.3377422,0.0366527292 16.3238943,0.0337928333 16.3101969,0.0303308542 C16.2949943,0.0262667917 16.2800927,0.0216006458 16.2645891,0.0185902083 C16.2614281,0.0178376042 16.2581167,0.0178376042 16.2549557,0.0172355208 L16.246075,0.0157303125 C16.235087,0.0136230208 16.2237979,0.0122683333 16.2123583,0.010763125 C16.1998651,0.00880635417 16.1876729,0.0062475 16.1751796,0.0048928125 C16.1445246,0.00174299615 16.1137267,0.000185521448 16.0829103,0.000226666667 L16.0797494,0.000226666667 L8.93226233,0.02596575 C8.43347982,0.0268386374 8.02984431,0.431889367 8.03071718,0.930671885 C8.03159005,1.4294544 8.43664077,1.83308992 8.93542329,1.83221706 L8.93858423,1.83221706 L13.9056248,1.81415456 L10.6397719,5.10363925 C9.52079923,4.22489798 8.11538517,3.69807469 6.59497312,3.69807469 L6.5070689,3.69852625 C2.88011623,3.7462414 -0.0315608958,6.73573785 0.01615425,10.3622389 C0.0632673125,13.9417775 3.01302623,16.8537557 6.59181219,16.8537557 L6.67971642,16.8531536 C8.43659687,16.8301239 10.0793825,16.1243312 11.3053755,14.865675 C12.5315191,13.6070189 13.1938113,11.9461708 13.1706311,10.1895914 C13.1522675,8.77650079 12.6799328,7.46847379 11.8964713,6.40143083 L15.1800857,3.09418467 L15.1800857,8.05038777 C15.1800857,8.5491703 15.5844288,8.95351344 16.0832113,8.95351344 C16.5819939,8.95351344 16.986337,8.5491703 16.986337,8.05038777 L16.986337,0.903051292 L16.986337,0.901997646 L16.986337,0.900191375 Z M9.795801,13.3953865 C8.96266758,14.2509475 7.84610321,14.7305073 6.65202056,14.7463119 L6.59181219,14.746613 C4.15984531,14.746613 2.15520737,12.7674131 2.12314642,10.3346936 C2.09078442,7.86976265 4.06983377,5.83818146 6.53476475,5.80566894 L6.59497312,5.80551842 C9.02709054,5.80551842 11.031879,7.78456779 11.0634884,10.2175883 C11.0792931,11.4113699 10.6290849,12.539976 9.795801,13.3953865 Z" id="Shape"></path>
                </g>
            </g>
        </g>
    </g>
</svg>