<?xml version="1.0" encoding="UTF-8"?>
<svg width="161px" height="111px" viewBox="0 0 161 111" version="1.1" xmlns="http://www.w3.org/2000/svg" xmlns:xlink="http://www.w3.org/1999/xlink">
    <!-- Generator: Sketch 49.1 (51147) - http://www.bohemiancoding.com/sketch -->
    <title>Group</title>
    <desc>Created with Sketch.</desc>
    <defs>
        <rect id="path-1" x="0" y="9" width="60" height="78" rx="5"></rect>
        <path d="M23.3684211,6.42857143 C23.3684211,2.87816947 26.3374801,0 30,0 C33.6625199,0 36.6315789,2.87816947 36.6315789,6.42857143 L47.2941176,6.42857143 C49.34082,6.42857143 51,8.34735107 51,10.7142857 L51,15 L9,15 L9,10.7142857 C9,8.34735107 10.65918,6.42857143 12.7058824,6.42857143 L23.3684211,6.42857143 Z" id="path-2"></path>
        <circle id="path-3" cx="30" cy="6" r="3"></circle>
    </defs>
    <g id="Page-1" stroke="none" stroke-width="1" fill="none" fill-rule="evenodd">
        <g id="今日盈利单" transform="translate(-107.000000, -195.000000)">
            <g id="空白" transform="translate(107.000000, 195.000000)">
                <g id="Group">
                    <g id="底部装饰">
                        <rect id="Rectangle-14" fill="#E6E6E6" x="20" y="0" width="110" height="20" rx="10"></rect>
                        <path d="M114,20 C108.477153,20 104,24.4771525 104,30 C104,35.5228475 108.477153,40 114,40 L37,40 C42.5228475,40 47,35.5228475 47,30 C47,24.4771525 42.5228475,20 37,20 L114,20 Z" id="Combined-Shape" fill="#E6E6E6"></path>
                        <path d="M124,60 C118.477153,60 114,64.4771525 114,70 C114,75.5228475 118.477153,80 124,80 L47,80 C52.5228475,80 57,75.5228475 57,70 C57,64.4771525 52.5228475,60 47,60 L124,60 Z" id="Combined-Shape-Copy" fill="#E6E6E6"></path>
                        <rect id="Rectangle-14-Copy-2" fill="#E6E6E6" x="30" y="40" width="122" height="20" rx="10"></rect>
                        <rect id="Rectangle-14-Copy-5" fill="#E6E6E6" x="13" y="80" width="139" height="20" rx="10"></rect>
                        <circle id="Oval-7" stroke="#E6E6E6" stroke-width="2" cx="17.5" cy="31.5" r="6.5"></circle>
                        <circle id="Oval-7-Copy" stroke="#E6E6E6" stroke-width="2" cx="143" cy="70" r="4"></circle>
                        <circle id="Oval-7-Copy-2" fill="#E6E6E6" cx="4" cy="76" r="4"></circle>
                        <rect id="Rectangle-16" fill="#D9D9D9" x="12" y="105" width="91" height="6" rx="3"></rect>
                        <rect id="Rectangle-16-Copy" fill="#D9D9D9" x="111" y="105" width="50" height="6" rx="3"></rect>
                    </g>
                    <g id="文件夹" transform="translate(51.000000, 5.000000)">
                        <g id="Rectangle-21">
                            <use fill="#F5F5F5" fill-rule="evenodd" xlink:href="#path-1"></use>
                            <rect stroke="#D7CECA" stroke-width="1" x="0.5" y="9.5" width="59" height="77" rx="5"></rect>
                        </g>
                        <rect id="Rectangle" fill="#D7CECA" x="10" y="27" width="40" height="1" rx="0.5"></rect>
                        <rect id="Rectangle-Copy" fill="#D7CECA" x="10" y="43" width="40" height="1" rx="0.5"></rect>
                        <rect id="Rectangle-Copy-2" fill="#D7CECA" x="10" y="59" width="40" height="1" rx="0.5"></rect>
                        <rect id="Rectangle-Copy-3" fill="#D7CECA" x="10" y="75" width="20" height="1" rx="0.5"></rect>
                        <g id="Combined-Shape">
                            <use fill="#F5F5F5" fill-rule="evenodd" xlink:href="#path-2"></use>
                            <path stroke="#D7CECA" stroke-width="1" d="M9.5,14.5 L50.5,14.5 L50.5,10.7142857 C50.5,8.608653 49.0472236,6.92857143 47.2941176,6.92857143 L36.1315789,6.92857143 L36.1315789,6.42857143 C36.1315789,3.15785038 33.3897964,0.5 30,0.5 C26.6102036,0.5 23.8684211,3.15785038 23.8684211,6.42857143 L23.8684211,6.92857143 L12.7058824,6.92857143 C10.9527764,6.92857143 9.5,8.608653 9.5,10.7142857 L9.5,14.5 Z"></path>
                        </g>
                        <g id="Oval-2">
                            <use fill="#F5F5F5" fill-rule="evenodd" xlink:href="#path-3"></use>
                            <circle stroke="#D7CECA" stroke-width="1" cx="30" cy="6" r="2.5"></circle>
                        </g>
                    </g>
                </g>
            </g>
        </g>
    </g>
</svg>