<?xml version="1.0" encoding="UTF-8"?>
<svg width="20px" height="22px" viewBox="0 0 20 22" version="1.1" xmlns="http://www.w3.org/2000/svg" xmlns:xlink="http://www.w3.org/1999/xlink">
    <!-- Generator: Sketch 49.1 (51147) - http://www.bohemiancoding.com/sketch -->
    <title>Group</title>
    <desc>Created with Sketch.</desc>
    <defs></defs>
    <g id="Page-1" stroke="none" stroke-width="1" fill="none" fill-rule="evenodd">
        <g id="我的-账户设置" transform="translate(-18.000000, -136.000000)" stroke="#007AFF">
            <g id="Group-7" transform="translate(10.000000, 136.000000)">
                <g id="Group" transform="translate(11.000000, 1.000000)">
                    <path d="M2.33333333,0 L11.6666667,0 C12.9553311,-2.13585395e-16 14,0.942558421 14,2.10526316 L14,17.8947368 C14,19.0574416 12.9553311,20 11.6666667,20 L2.33333333,20 C1.04466892,20 1.57815875e-16,19.0574416 0,17.8947368 L0,2.10526316 C-1.57815875e-16,0.942558421 1.04466892,2.13585395e-16 2.33333333,0 Z" id="Rectangle-5"></path>
                    <path d="M3.5502986,0.5 C3.67462957,1.09708965 4.00984487,1.5 4.33333333,1.5 L9.66666667,1.5 C9.99015513,1.5 10.3253704,1.09708965 10.4497014,0.5 L3.5502986,0.5 Z" id="Rectangle-7"></path>
                    <path d="M10.4609879,17.5136341 C10.4340949,17.5090894 10.3924282,17.5 10.3333333,17.5 L3.66666667,17.5 C3.54847683,17.5 3.5,17.5363576 3.5,17.5 C3.5,17.4636424 3.54847683,17.5 3.66666667,17.5 L10.3333333,17.5 C10.3924282,17.5 10.4340949,17.4909106 10.4609879,17.4863659 Z" id="Rectangle-9"></path>
                </g>
            </g>
        </g>
    </g>
</svg>