<?xml version="1.0" encoding="UTF-8"?>
<svg width="114px" height="88px" viewBox="0 0 114 88" version="1.1" xmlns="http://www.w3.org/2000/svg" xmlns:xlink="http://www.w3.org/1999/xlink">
    <!-- Generator: Sketch 49.1 (51147) - http://www.bohemiancoding.com/sketch -->
    <title>冠军</title>
    <desc>Created with Sketch.</desc>
    <defs></defs>
    <g id="Page-1" stroke="none" stroke-width="1" fill="none" fill-rule="evenodd">
        <g id="盈利榜" transform="translate(-130.000000, -86.000000)">
            <g id="冠军" transform="translate(121.000000, 52.000000)">
                <g id="头像" transform="translate(9.000000, 0.000000)">
                    <path d="M0,0 L114,0 L114,145 L0,145 L0,0 Z M59.3844336,34.472368 C58.2068595,33.8434363 56.7931405,33.8434363 55.6155664,34.472368 L37.1155664,44.3530498 C35.8132692,45.0485949 35,46.4049497 35,47.8813511 L35,67.1186489 C35,68.5950503 35.8132692,69.9514051 37.1155664,70.6469502 L55.6155664,80.527632 C56.7931405,81.1565637 58.2068595,81.1565637 59.3844336,80.527632 L77.8844336,70.6469502 C79.1867308,69.9514051 80,68.5950503 80,67.1186489 L80,47.8813511 C80,46.4049497 79.1867308,45.0485949 77.8844336,44.3530498 L59.3844336,34.472368 Z" id="Combined-Shape" fill="#007AFF"></path>
                    <path d="M39.6489362,72 L55.6155664,80.527632 C56.7931405,81.1565637 58.2068595,81.1565637 59.3844336,80.527632 L75.3510638,72 L89,72 L81.6744186,79 L89,86 L26,86 L33.3255814,79 L26,72 L39.6489362,72 Z" id="Combined-Shape" fill="#EA202B"></path>
                    <path d="M74.9114546,72.2347913 L76,74 L71.606383,74 L74.9114546,72.2347913 Z M43.393617,74 L39,74 L40.0885454,72.2347913 L43.393617,74 Z" id="Combined-Shape" fill="#B0000A"></path>
                    <path d="M58.677771,35.7954809 C57.9417872,35.4023987 57.0582128,35.4023987 56.322229,35.7954809 L37.822229,45.6761628 C37.0082932,46.1108784 36.5,46.9586002 36.5,47.8813511 L36.5,67.1186489 C36.5,68.0413998 37.0082932,68.8891216 37.822229,69.3238372 L56.322229,79.2045191 C57.0582128,79.5976013 57.9417872,79.5976013 58.677771,79.2045191 L77.177771,69.3238372 C77.9917068,68.8891216 78.5,68.0413998 78.5,67.1186489 L78.5,47.8813511 C78.5,46.9586002 77.9917068,46.1108784 77.177771,45.6761628 L58.677771,35.7954809 Z" id="Polygon-Copy-4" stroke="#FF4852" stroke-width="3"></path>
                    <path d="M58.8932315,37.8597494 C58.0207519,37.4022296 56.9792481,37.4022296 56.1067685,37.8597494 L39.6067685,46.5121884 C38.6188911,47.0302217 38,48.0535845 38,49.1690486 L38,65.8309514 C38,66.9464155 38.6188911,67.9697783 39.6067685,68.4878116 L56.1067685,77.1402506 C56.9792481,77.5977704 58.0207519,77.5977704 58.8932315,77.1402506 L75.3932315,68.4878116 C76.3811089,67.9697783 77,66.9464155 77,65.8309514 L77,49.1690486 C77,48.0535845 76.3811089,47.0302217 75.3932315,46.5121884 L58.8932315,37.8597494 Z" id="Polygon-Copy" stroke="#007AFF" stroke-width="2"></path>
                    <path d="M39,74 L76,74 L76,87 C76,87.5522847 75.5522847,88 75,88 L40,88 C39.4477153,88 39,87.5522847 39,87 L39,74 Z" id="Rectangle-5-Copy-2" fill="#FF4852"></path>
                    <text id="1" font-family="PingFangSC-Regular, PingFang SC" font-size="10" font-weight="normal" fill="#FFFFFF">
                        <tspan x="54" y="85">1</tspan>
                    </text>
                </g>
                <g id="01" transform="translate(26.000000, 91.500000) rotate(-15.000000) translate(-26.000000, -91.500000) translate(10.000000, 54.000000)" fill="#4AA0FF" fill-rule="nonzero">
                    <path d="M29.7464789,3.08206687 C29.3239437,3.50759878 28.971831,3.99392097 28.4788732,4.35866261 C27.915493,4.78419453 27.2112676,5.14893617 26.5774648,5.45288754 C26.084507,5.63525836 25.5211268,5.75683891 24.9577465,5.81762918 C24.3239437,5.93920973 23.6197183,6 22.915493,6 C22.5633803,6 22.2816901,5.87841945 22,5.81762918 C22.4225352,5.27051672 22.7746479,4.72340426 23.2676056,4.23708207 C23.8309859,3.75075988 24.3943662,3.26443769 25.028169,2.83890578 C25.6619718,2.41337386 26.3661972,1.98784195 27.0704225,1.68389058 C27.6338028,1.44072948 28.1971831,1.19756839 28.8309859,1.07598784 C29.3943662,0.954407295 29.9577465,1.01519757 30.5915493,1.01519757 C31.0140845,1.07598784 31.5070423,1.19756839 32,1.31914894 C31.7183099,1.6231003 31.084507,1.68389058 30.7323944,1.98784195 C30.3802817,2.23100304 30.1690141,2.65653495 29.7464789,3.08206687 Z" id="Shape"></path>
                    <path d="M21.4933099,1.46980067 C21.4275857,2.60555573 21.4275857,3.74131079 21.3618616,4.87706586 C21.3618616,5.21111146 21.3618616,5.47834795 21.2961374,5.81239356 C21.2961374,6.01282092 21.2304133,6.21324828 21.1646892,6.41367565 C21.0332409,6.61410301 20.8360684,6.74772125 20.638896,7.01495774 C20.9017926,7.08176686 21.1646892,7.01495774 21.4275857,6.94814862 C21.7562064,6.8813395 22.1505513,6.8813395 22.479172,6.81453038 C22.8735169,6.74772125 23.3335859,6.68091213 23.7279307,6.74772125 C24.1879997,6.81453038 24.5823446,6.94814862 25.0424136,7.01495774 C25.4367584,7.08176686 25.8311033,7.28219423 26.2911723,7.28219423 C26.619793,7.34900335 26.8826896,7.34900335 27.2113103,7.2153851 C27.539931,7.14857598 27.7371034,6.94814862 28,6.81453038 C27.8028276,7.28219423 27.6713793,7.68304895 27.4084827,8.08390368 C27.1455861,8.48475841 26.7512413,8.81880402 26.3568964,9.01923138 C25.7653791,9.35327699 25.1738619,9.48689523 24.5166204,9.62051347 C23.9251032,9.75413171 23.2678617,9.95455908 22.6763444,9.95455908 C21.9533789,10.0213682 21.2961374,10.0213682 20.638896,9.95455908 C20.178827,9.95455908 19.6530339,9.82094084 19.1929649,9.75413171 C18.9957924,9.68732259 18.8643442,9.55370435 18.6671717,9.55370435 C18.4699993,9.55370435 18.2071027,9.48689523 18.0756545,9.68732259 C17.8127579,9.95455908 17.8127579,10.3554138 17.6813096,10.7562685 C17.5498613,11.1571233 17.418413,11.557978 17.2869647,12.0256418 C17.878482,11.9588327 18.4699993,11.8920236 19.0615166,11.8252145 C19.5215856,11.7584054 20.0473787,11.7584054 20.5074477,11.7584054 C21.0332409,11.7584054 21.4933099,11.6915962 21.9533789,11.6915962 C22.2819996,11.6915962 22.6106203,11.7584054 22.939241,11.6915962 C23.2021376,11.6247871 23.4650342,11.557978 23.7279307,11.4243597 C23.9251032,11.2907415 24.0565514,11.0903141 24.2537239,11.023505 C24.1222756,11.3575506 24.1222756,11.6247871 23.9908273,11.8920236 C23.9251032,12.1592601 23.7936549,12.4264966 23.6622066,12.6937331 C23.39931,13.0945878 23.2678617,13.5622516 22.8735169,13.8962972 C22.479172,14.297152 21.9533789,14.5643885 21.4933099,14.7648158 C20.7703443,15.0988614 20.0473787,15.3660979 19.3244132,15.6333344 C18.6014476,15.9005709 17.878482,16.1009982 17.1555165,16.2346165 C16.5639992,16.3682347 15.9724819,16.3682347 15.3152405,16.4350438 C14.7894473,16.4350438 14.2636542,16.4350438 13.6721369,16.4350438 C13.5406886,16.7022803 13.4749645,16.9027077 13.3435162,17.1699442 C13.2120679,17.4371807 13.0148955,17.7044172 12.817723,17.9716536 C12.6862748,18.172081 12.4233782,18.3056992 12.2262058,18.5061266 C12.0290333,18.6397449 11.897585,18.9069813 11.7004126,18.9737905 C11.5032402,19.0405996 11.2403436,18.9737905 11.1088953,18.8401722 C10.977447,18.706554 10.977447,18.5061266 11.0431712,18.3056992 C11.1088953,18.1052719 11.3060678,17.9716536 11.3717919,17.8380354 C11.6346885,17.5039898 11.897585,17.1699442 12.0947575,16.8358986 C12.2262058,16.501853 12.357654,16.1678074 12.4233782,15.7669526 C12.4891023,15.432907 12.4233782,15.0988614 12.357654,14.7648158 C12.2919299,14.3639611 12.0947575,13.8962972 12.0290333,13.4954425 C11.9633092,12.6269239 11.897585,11.6915962 11.9633092,10.7562685 C12.0290333,9.95455908 12.1604816,9.15284962 12.357654,8.35114017 C12.4891023,7.8166672 12.6205506,7.28219423 12.817723,6.81453038 C13.0148955,6.41367565 13.277792,5.9460118 13.6064127,5.61196619 C13.8693093,5.27792059 14.19793,5.07749322 14.5265507,4.81025674 C14.7894473,4.60982937 15.118068,4.40940201 15.3809646,4.27578377 C15.3152405,4.54302025 15.118068,4.81025674 15.118068,5.07749322 C15.0523439,5.47834795 15.0523439,5.87920268 15.118068,6.28005741 C15.2495163,6.8813395 15.5124129,7.41581247 15.6438612,8.01709456 C15.7753095,8.55156753 15.8410336,9.15284962 15.9724819,9.68732259 C16.038206,10.0213682 15.9724819,10.4222229 16.038206,10.7562685 C16.038206,10.9566959 16.038206,11.0903141 16.038206,11.2907415 C16.1696543,11.0903141 16.3668267,10.9566959 16.4325509,10.6894594 C16.7611716,10.0213682 17.0240682,9.35327699 17.2869647,8.68518577 C17.4841372,8.1507128 17.6155855,7.61623983 17.6813096,7.08176686 C17.8127579,6.21324828 17.878482,5.34472971 18.0756545,4.47621113 C18.2728269,3.74131079 18.4699993,2.93960134 18.8643442,2.27151013 C19.0615166,1.8706554 19.3901373,1.67022803 19.718758,1.33618243 C20.0473787,1.00213682 20.4417236,0.668091213 20.9017926,0.400854728 C21.2304133,0.200427364 21.559034,0.133618243 21.8876547,0 C21.7562064,0.200427364 21.6247582,0.334045607 21.6247582,0.534472971 C21.4933099,0.868518577 21.4933099,1.13575506 21.4933099,1.46980067 Z" id="Shape"></path>
                    <path d="M13.9282457,20.010582 C14.4692328,19.8121693 15.01022,19.6798942 15.6188305,19.547619 C16.1598176,19.4153439 16.7008047,19.4153439 17.1741685,19.2830688 C17.5799088,19.1507937 17.9180258,19.0185185 18.2561427,18.7539683 C18.5266363,18.5555556 18.7971298,18.2248677 19,18.026455 C18.9323766,18.489418 19,18.8862434 18.9323766,19.3492063 C18.7971298,19.8783069 18.661883,20.4074074 18.3237661,20.8703704 C17.8504024,21.531746 17.2417918,22.1269841 16.6331813,22.6560847 C15.889324,23.2513228 15.0778434,23.7142857 14.2663627,24.1772487 C13.5901288,24.5740741 12.9138949,24.8386243 12.2376609,25.1031746 C11.7642972,25.3015873 11.2909335,25.4338624 10.8175697,25.5661376 C10.4118294,25.6322751 9.93846567,25.5661376 9.46510194,25.6984127 C9.19460838,25.8306878 8.85649142,26.0291005 8.72124464,26.2936508 C8.45075108,26.7566138 8.38312769,27.2857143 8.24788091,27.8148148 C8.18025752,28.2116402 8.24788091,28.6746032 8.18025752,29.1375661 C8.11263413,29.6005291 7.90976396,30.1296296 7.77451718,30.5925926 C8.18025752,30.2619048 8.51837447,29.7989418 8.99173821,29.468254 C9.46510194,29.0714286 10.0060891,28.6746032 10.5470762,28.4100529 C11.3585569,27.9470899 12.2376609,27.6164021 13.0491416,27.2195767 C13.5225054,26.9550265 13.9958691,26.7566138 14.4016094,26.4259259 C14.672103,26.0952381 14.8749732,25.7645503 15.1454667,25.4338624 C15.2130901,25.8968254 15.3483369,26.3597884 15.2807135,26.8227513 C15.2130901,27.484127 15.0778434,28.2116402 14.7397264,28.8068783 C14.4016094,29.6005291 13.9282457,30.3280423 13.3872586,30.989418 C12.7110247,31.7169312 11.899544,32.3783069 11.0880633,32.973545 C10.4794528,33.4365079 9.7355955,33.8333333 9.0593616,34.1640212 C8.58599786,34.4285714 8.11263413,34.6269841 7.6392704,34.8253968 C7.43640022,34.8915344 7.23353005,34.957672 7.09828327,35.1560847 C6.96303649,35.4206349 6.82778971,35.7513228 6.82778971,36.0820106 C6.76016632,36.5449735 6.96303649,37.0079365 6.8954131,37.4708995 C6.82778971,37.6693122 6.76016632,37.8677249 6.55729615,37.9338624 C6.42204937,38 6.21917919,38 6.08393241,38 C5.94868563,37.9338624 5.74581546,37.8015873 5.74581546,37.6693122 C5.61056868,37.4047619 5.67819207,37.1402116 5.67819207,36.8756614 C5.61056868,36.3465608 5.61056868,35.8174603 5.61056868,35.2883598 C5.61056868,35.0899471 5.67819207,34.8253968 5.54294529,34.6269841 C5.40769851,34.4285714 5.20482834,34.2301587 5.00195817,34.031746 C4.66384121,33.6349206 4.32572426,33.3042328 4.0552307,32.8412698 C3.58186697,32.1137566 3.17612662,31.3201058 2.90563306,30.526455 C2.56751611,29.6666667 2.29702255,28.8068783 2.16177576,27.9470899 C2.02652898,27.3518519 1.95890559,26.6904762 2.02652898,26.0952381 C2.09415237,25.4338624 2.36464594,24.7724868 2.56751611,24.1111111 C2.70276289,23.7142857 3.04087984,23.3174603 3.24375001,22.9206349 C3.3113734,23.1851852 3.3113734,23.515873 3.37899679,23.7804233 C3.51424357,24.1111111 3.71711375,24.3756614 3.85236053,24.6402116 C4.0552307,24.9047619 4.25810087,25.1693122 4.46097104,25.4338624 C4.79908799,25.8306878 5.13720495,26.2936508 5.4753219,26.6904762 C5.81343885,27.0873016 6.08393241,27.4179894 6.42204937,27.8148148 C6.55729615,27.9470899 6.62491954,28.2116402 6.82778971,28.2116402 C6.96303649,28.2116402 6.96303649,28.0132275 7.03065988,27.8809524 C7.16590666,27.484127 7.36877683,27.1534392 7.50402361,26.7566138 C7.6392704,26.3597884 7.70689379,25.8968254 7.70689379,25.4338624 C7.6392704,25.1031746 7.50402361,24.8386243 7.36877683,24.5079365 C7.16590666,23.978836 6.8954131,23.4497354 6.69254293,22.9206349 C6.42204937,21.9285714 6.1515558,21.0026455 6.01630902,20.010582 C5.88106224,19.2169312 5.88106224,18.4232804 5.88106224,17.6296296 C5.94868563,16.8359788 6.01630902,16.1084656 6.21917919,15.3148148 C6.42204937,14.7857143 6.76016632,14.3888889 7.09828327,13.9259259 C7.36877683,13.5952381 7.6392704,13.3306878 7.90976396,13 C7.90976396,13.2645503 7.90976396,13.5291005 7.97738735,13.7936508 C8.04501074,14.2566138 8.11263413,14.6534392 8.3155043,15.1164021 C8.58599786,15.7116402 8.92411482,16.3068783 9.19460838,16.9021164 C9.53272533,17.6296296 9.7355955,18.4232804 9.93846567,19.2169312 C10.0737125,19.6137566 10.1413358,20.010582 10.1413358,20.4074074 C10.2089592,20.8703704 10.2765826,21.3994709 10.2765826,21.8624339 C10.8851931,21.4656085 11.4261803,21.0687831 12.0347908,20.7380952 C12.7110247,20.4074074 13.3196352,20.2089947 13.9282457,20.010582 Z" id="Shape"></path>
                    <path d="M4.38075083,36.9155474 C4.78619805,37.3137387 5.19164526,37.6455648 5.52951793,38.1101212 C5.86739061,38.4419473 6.07011422,38.9065038 6.27283782,39.304695 C6.54313596,39.7028863 6.74585957,40.1674428 6.94858317,40.5656341 C7.08373224,40.233808 7.21888131,39.9019819 7.35403039,39.5701559 C7.55675399,39.1719646 7.7594776,38.7074081 8.02977574,38.3755821 C8.36764841,37.9110256 8.84067016,37.5128343 9.31369191,37.1146431 C9.85428819,36.6500866 10.3273099,36.1855301 10.8679062,35.7873389 C11.340928,35.4555128 11.8815242,35.190052 12.2869715,34.7918607 C12.5572696,34.5263999 12.8275677,34.260939 13.0302913,33.929113 C13.1654404,33.5972869 13.233015,33.2654608 13.3005895,33 C13.6384622,33.9954782 14.1114839,34.9909563 13.9763348,36.0527997 C13.7060367,37.9110256 12.2193969,40.4992688 10.9354808,41.8929383 C10.0570118,42.8220512 8.43522295,43.6184338 7.7594776,44.6139119 C7.62432853,44.8130076 7.48917946,45.0784684 7.48917946,45.3439292 C7.42160492,45.9412161 7.55675399,46.538503 7.55675399,47.1357899 C7.62432853,47.5339812 7.7594776,47.9321725 7.69190306,48.3303637 C7.69190306,48.5294594 7.55675399,48.728555 7.35403039,48.8612854 C7.21888131,48.9940159 6.94858317,49.0603811 6.74585957,48.9276506 C6.6107105,48.8612854 6.54313596,48.5958246 6.47556143,48.4630942 C6.34041236,47.9321725 6.34041236,47.467616 6.27283782,46.9366943 C6.20526329,46.4721378 6.27283782,46.0739466 6.27283782,45.6093901 C6.27283782,45.4766597 6.27283782,45.277564 6.20526329,45.2111988 C6.07011422,45.0121032 5.86739061,44.8130076 5.73224154,44.6802771 C5.25921979,44.2820859 4.71862351,43.8838946 4.24560176,43.4857033 C3.63743095,42.8884164 2.96168559,42.2911295 2.42108931,41.6274774 C1.88049303,40.8974601 1.40747128,39.9683472 1.00202407,39.1719646 C0.664151395,38.5083125 0.326278719,37.8446604 0.191129648,37.1146431 C0.0559805779,36.450991 -0.0791684926,35.6546084 0.0559805779,34.9245911 C0.123555113,34.260939 0.461427789,33.7300173 0.664151395,33.0663652 C0.866875001,33.4645565 1.00202407,33.929113 1.27232221,34.260939 C1.67776942,34.7254955 2.15079117,35.1236868 2.62381292,35.521878 C3.29955827,35.9200693 3.84015455,36.3846258 4.38075083,36.9155474 Z" id="Shape"></path>
                    <path d="M0.623578253,46.185454 C0.970010616,46.5124426 1.38572945,46.7740334 1.80144829,47.0356243 C2.42502654,47.3626129 3.18717774,47.558806 3.81075599,47.8203969 C4.50362072,48.1473855 5.26577192,48.4089764 5.88935017,48.8013627 C6.37435548,49.0629536 6.85936078,49.3899422 7.20579315,49.7169307 C7.62151198,50.1093171 7.96794435,50.5671011 8.31437671,51.0248851 C8.31437671,50.6978965 8.17580376,50.4363056 8.24509024,50.1093171 C8.24509024,49.7823285 8.38366318,49.3899422 8.52223613,49.0629536 C8.73009554,48.4743741 9.00724143,47.9511924 9.3536738,47.4280106 C9.70010616,46.9048289 10.1851115,46.3816471 10.6008303,45.8584654 C11.0165491,45.4006813 11.5015544,44.9428973 11.7787003,44.4197156 C12.0558462,44.0273293 12.1944192,43.5041475 12.3329921,43.0463635 C12.4022786,42.7193749 12.4022786,42.3269886 12.3329921,42 C12.9565704,42.5885795 13.5801486,43.1117612 13.788008,43.9619315 C14.2037269,45.4006813 13.926581,47.2318175 13.6494351,48.6051695 C13.3030027,50.0439193 12.610138,51.4172714 11.9172733,52.7252258 C11.6401274,53.2484075 10.8779762,54.0331801 10.8086897,54.5563619 C10.7394032,54.8179528 10.8086897,55.0795436 10.8779762,55.2757368 C11.1551221,55.8643162 11.5708409,56.387498 11.8479868,56.9760775 C11.9172733,57.1722706 11.9172733,57.3684638 11.9172733,57.4992592 C11.8479868,57.6954524 11.8479868,57.8916455 11.6401274,57.9570432 C11.5015544,58.0224409 11.2244086,58.0224409 11.0858356,57.8916455 C10.8086897,57.6954524 10.6701168,57.3684638 10.5315438,57.1068729 C10.2543979,56.6490889 10.0465385,56.1913048 9.76939263,55.7335208 C9.70010616,55.6027254 9.70010616,55.4719299 9.56153322,55.4065322 C9.3536738,55.2757368 9.07652791,55.2103391 8.86866849,55.1449414 C7.0672202,54.4909642 5.54291781,54.0331801 4.01861541,52.8560212 C2.7714589,51.8750554 1.38572945,50.5017034 0.623578253,49.193749 C0.346432363,48.735965 0.138572945,48.1473855 0.0692864726,47.6242038 C-0.0692864726,46.9702266 0.0692864726,46.185454 0,45.5314768 C0.207859418,45.7276699 0.346432363,45.9892608 0.623578253,46.185454 Z" id="Shape"></path>
                    <path d="M3.29837703,61.0361446 C2.97378277,60.626506 2.71410737,60.0803213 2.51935081,59.5341365 C2.32459426,58.9879518 2.19475655,58.4417671 2,57.8273092 C2.32459426,58.0321285 2.64918851,58.373494 2.97378277,58.5783133 C3.29837703,58.7148594 3.68789014,58.7831325 4.01248439,58.8514056 C4.72659176,58.9879518 5.44069913,59.0562249 6.15480649,59.2610442 C6.86891386,59.3975904 7.58302122,59.5341365 8.23220974,59.7389558 C8.6866417,59.875502 9.14107366,60.0120482 9.53058677,60.2168675 C9.98501873,60.4899598 10.309613,60.8313253 10.7640449,61.1726908 C10.6991261,60.8313253 10.6342072,60.4899598 10.6342072,60.1485944 C10.6342072,59.4658635 10.6991261,58.8514056 10.7640449,58.1686747 C10.8289638,57.5542169 10.9588015,56.939759 11.0886392,56.3253012 C11.3483146,55.5060241 11.60799,54.686747 11.8676654,53.935743 C11.9975031,53.4578313 12.2571785,53.0481928 12.3220974,52.502008 C12.3870162,52.0240964 12.2571785,51.4779116 12.2571785,51 C12.6466916,51.3413655 13.1660424,51.6144578 13.5555556,52.0240964 C13.9450687,52.502008 14.2047441,52.9799197 14.3995006,53.5261044 C14.7240949,54.3453815 14.8539326,55.3012048 14.9188514,56.188755 C15.0486891,57.1445783 14.9837703,58.1686747 14.9837703,59.124498 C14.9188514,59.9437751 14.7890137,60.8313253 14.659176,61.6506024 C14.5293383,62.4016064 14.2696629,63.0843373 13.9450687,63.7670683 C13.815231,64.1767068 13.5555556,64.5180723 13.4257179,64.9277108 C13.360799,65.1325301 13.360799,65.4738956 13.4906367,65.6787149 C13.6853933,66.0200803 14.1398252,66.2248996 14.3995006,66.5662651 C14.5293383,66.7028112 14.7240949,66.9076305 14.7890137,67.1124498 C14.8539326,67.248996 14.8539326,67.4538153 14.8539326,67.5903614 C14.7890137,67.7269076 14.659176,67.7951807 14.5293383,67.8634538 C14.3995006,67.9317269 14.2696629,68 14.2047441,68 C13.9450687,67.7951807 13.7503121,67.5220884 13.4906367,67.248996 C13.1011236,66.8393574 12.7765293,66.2931727 12.3870162,65.8835341 C12.062422,65.6104418 11.60799,65.3373494 11.2184769,65.2008032 C10.6991261,64.9959839 10.2446941,64.8594378 9.72534332,64.7228916 C9.20599251,64.5863454 8.6866417,64.5180723 8.16729089,64.313253 C7.64794007,64.1084337 7.12858926,63.9036145 6.6741573,63.6305221 C6.08988764,63.2891566 5.44069913,62.9477912 4.92134831,62.5381526 C4.4019975,62.1967871 3.81772784,61.6506024 3.29837703,61.0361446 Z" id="Shape"></path>
                </g>
                <g id="01-copy" transform="translate(106.160527, 91.363323) scale(-1, 1) rotate(-15.000000) translate(-106.160527, -91.363323) translate(90.160527, 53.863323)" fill="#4AA0FF" fill-rule="nonzero">
                    <path d="M29.7464789,3.08206687 C29.3239437,3.50759878 28.971831,3.99392097 28.4788732,4.35866261 C27.915493,4.78419453 27.2112676,5.14893617 26.5774648,5.45288754 C26.084507,5.63525836 25.5211268,5.75683891 24.9577465,5.81762918 C24.3239437,5.93920973 23.6197183,6 22.915493,6 C22.5633803,6 22.2816901,5.87841945 22,5.81762918 C22.4225352,5.27051672 22.7746479,4.72340426 23.2676056,4.23708207 C23.8309859,3.75075988 24.3943662,3.26443769 25.028169,2.83890578 C25.6619718,2.41337386 26.3661972,1.98784195 27.0704225,1.68389058 C27.6338028,1.44072948 28.1971831,1.19756839 28.8309859,1.07598784 C29.3943662,0.954407295 29.9577465,1.01519757 30.5915493,1.01519757 C31.0140845,1.07598784 31.5070423,1.19756839 32,1.31914894 C31.7183099,1.6231003 31.084507,1.68389058 30.7323944,1.98784195 C30.3802817,2.23100304 30.1690141,2.65653495 29.7464789,3.08206687 Z" id="Shape"></path>
                    <path d="M21.4933099,1.46980067 C21.4275857,2.60555573 21.4275857,3.74131079 21.3618616,4.87706586 C21.3618616,5.21111146 21.3618616,5.47834795 21.2961374,5.81239356 C21.2961374,6.01282092 21.2304133,6.21324828 21.1646892,6.41367565 C21.0332409,6.61410301 20.8360684,6.74772125 20.638896,7.01495774 C20.9017926,7.08176686 21.1646892,7.01495774 21.4275857,6.94814862 C21.7562064,6.8813395 22.1505513,6.8813395 22.479172,6.81453038 C22.8735169,6.74772125 23.3335859,6.68091213 23.7279307,6.74772125 C24.1879997,6.81453038 24.5823446,6.94814862 25.0424136,7.01495774 C25.4367584,7.08176686 25.8311033,7.28219423 26.2911723,7.28219423 C26.619793,7.34900335 26.8826896,7.34900335 27.2113103,7.2153851 C27.539931,7.14857598 27.7371034,6.94814862 28,6.81453038 C27.8028276,7.28219423 27.6713793,7.68304895 27.4084827,8.08390368 C27.1455861,8.48475841 26.7512413,8.81880402 26.3568964,9.01923138 C25.7653791,9.35327699 25.1738619,9.48689523 24.5166204,9.62051347 C23.9251032,9.75413171 23.2678617,9.95455908 22.6763444,9.95455908 C21.9533789,10.0213682 21.2961374,10.0213682 20.638896,9.95455908 C20.178827,9.95455908 19.6530339,9.82094084 19.1929649,9.75413171 C18.9957924,9.68732259 18.8643442,9.55370435 18.6671717,9.55370435 C18.4699993,9.55370435 18.2071027,9.48689523 18.0756545,9.68732259 C17.8127579,9.95455908 17.8127579,10.3554138 17.6813096,10.7562685 C17.5498613,11.1571233 17.418413,11.557978 17.2869647,12.0256418 C17.878482,11.9588327 18.4699993,11.8920236 19.0615166,11.8252145 C19.5215856,11.7584054 20.0473787,11.7584054 20.5074477,11.7584054 C21.0332409,11.7584054 21.4933099,11.6915962 21.9533789,11.6915962 C22.2819996,11.6915962 22.6106203,11.7584054 22.939241,11.6915962 C23.2021376,11.6247871 23.4650342,11.557978 23.7279307,11.4243597 C23.9251032,11.2907415 24.0565514,11.0903141 24.2537239,11.023505 C24.1222756,11.3575506 24.1222756,11.6247871 23.9908273,11.8920236 C23.9251032,12.1592601 23.7936549,12.4264966 23.6622066,12.6937331 C23.39931,13.0945878 23.2678617,13.5622516 22.8735169,13.8962972 C22.479172,14.297152 21.9533789,14.5643885 21.4933099,14.7648158 C20.7703443,15.0988614 20.0473787,15.3660979 19.3244132,15.6333344 C18.6014476,15.9005709 17.878482,16.1009982 17.1555165,16.2346165 C16.5639992,16.3682347 15.9724819,16.3682347 15.3152405,16.4350438 C14.7894473,16.4350438 14.2636542,16.4350438 13.6721369,16.4350438 C13.5406886,16.7022803 13.4749645,16.9027077 13.3435162,17.1699442 C13.2120679,17.4371807 13.0148955,17.7044172 12.817723,17.9716536 C12.6862748,18.172081 12.4233782,18.3056992 12.2262058,18.5061266 C12.0290333,18.6397449 11.897585,18.9069813 11.7004126,18.9737905 C11.5032402,19.0405996 11.2403436,18.9737905 11.1088953,18.8401722 C10.977447,18.706554 10.977447,18.5061266 11.0431712,18.3056992 C11.1088953,18.1052719 11.3060678,17.9716536 11.3717919,17.8380354 C11.6346885,17.5039898 11.897585,17.1699442 12.0947575,16.8358986 C12.2262058,16.501853 12.357654,16.1678074 12.4233782,15.7669526 C12.4891023,15.432907 12.4233782,15.0988614 12.357654,14.7648158 C12.2919299,14.3639611 12.0947575,13.8962972 12.0290333,13.4954425 C11.9633092,12.6269239 11.897585,11.6915962 11.9633092,10.7562685 C12.0290333,9.95455908 12.1604816,9.15284962 12.357654,8.35114017 C12.4891023,7.8166672 12.6205506,7.28219423 12.817723,6.81453038 C13.0148955,6.41367565 13.277792,5.9460118 13.6064127,5.61196619 C13.8693093,5.27792059 14.19793,5.07749322 14.5265507,4.81025674 C14.7894473,4.60982937 15.118068,4.40940201 15.3809646,4.27578377 C15.3152405,4.54302025 15.118068,4.81025674 15.118068,5.07749322 C15.0523439,5.47834795 15.0523439,5.87920268 15.118068,6.28005741 C15.2495163,6.8813395 15.5124129,7.41581247 15.6438612,8.01709456 C15.7753095,8.55156753 15.8410336,9.15284962 15.9724819,9.68732259 C16.038206,10.0213682 15.9724819,10.4222229 16.038206,10.7562685 C16.038206,10.9566959 16.038206,11.0903141 16.038206,11.2907415 C16.1696543,11.0903141 16.3668267,10.9566959 16.4325509,10.6894594 C16.7611716,10.0213682 17.0240682,9.35327699 17.2869647,8.68518577 C17.4841372,8.1507128 17.6155855,7.61623983 17.6813096,7.08176686 C17.8127579,6.21324828 17.878482,5.34472971 18.0756545,4.47621113 C18.2728269,3.74131079 18.4699993,2.93960134 18.8643442,2.27151013 C19.0615166,1.8706554 19.3901373,1.67022803 19.718758,1.33618243 C20.0473787,1.00213682 20.4417236,0.668091213 20.9017926,0.400854728 C21.2304133,0.200427364 21.559034,0.133618243 21.8876547,0 C21.7562064,0.200427364 21.6247582,0.334045607 21.6247582,0.534472971 C21.4933099,0.868518577 21.4933099,1.13575506 21.4933099,1.46980067 Z" id="Shape"></path>
                    <path d="M13.9282457,20.010582 C14.4692328,19.8121693 15.01022,19.6798942 15.6188305,19.547619 C16.1598176,19.4153439 16.7008047,19.4153439 17.1741685,19.2830688 C17.5799088,19.1507937 17.9180258,19.0185185 18.2561427,18.7539683 C18.5266363,18.5555556 18.7971298,18.2248677 19,18.026455 C18.9323766,18.489418 19,18.8862434 18.9323766,19.3492063 C18.7971298,19.8783069 18.661883,20.4074074 18.3237661,20.8703704 C17.8504024,21.531746 17.2417918,22.1269841 16.6331813,22.6560847 C15.889324,23.2513228 15.0778434,23.7142857 14.2663627,24.1772487 C13.5901288,24.5740741 12.9138949,24.8386243 12.2376609,25.1031746 C11.7642972,25.3015873 11.2909335,25.4338624 10.8175697,25.5661376 C10.4118294,25.6322751 9.93846567,25.5661376 9.46510194,25.6984127 C9.19460838,25.8306878 8.85649142,26.0291005 8.72124464,26.2936508 C8.45075108,26.7566138 8.38312769,27.2857143 8.24788091,27.8148148 C8.18025752,28.2116402 8.24788091,28.6746032 8.18025752,29.1375661 C8.11263413,29.6005291 7.90976396,30.1296296 7.77451718,30.5925926 C8.18025752,30.2619048 8.51837447,29.7989418 8.99173821,29.468254 C9.46510194,29.0714286 10.0060891,28.6746032 10.5470762,28.4100529 C11.3585569,27.9470899 12.2376609,27.6164021 13.0491416,27.2195767 C13.5225054,26.9550265 13.9958691,26.7566138 14.4016094,26.4259259 C14.672103,26.0952381 14.8749732,25.7645503 15.1454667,25.4338624 C15.2130901,25.8968254 15.3483369,26.3597884 15.2807135,26.8227513 C15.2130901,27.484127 15.0778434,28.2116402 14.7397264,28.8068783 C14.4016094,29.6005291 13.9282457,30.3280423 13.3872586,30.989418 C12.7110247,31.7169312 11.899544,32.3783069 11.0880633,32.973545 C10.4794528,33.4365079 9.7355955,33.8333333 9.0593616,34.1640212 C8.58599786,34.4285714 8.11263413,34.6269841 7.6392704,34.8253968 C7.43640022,34.8915344 7.23353005,34.957672 7.09828327,35.1560847 C6.96303649,35.4206349 6.82778971,35.7513228 6.82778971,36.0820106 C6.76016632,36.5449735 6.96303649,37.0079365 6.8954131,37.4708995 C6.82778971,37.6693122 6.76016632,37.8677249 6.55729615,37.9338624 C6.42204937,38 6.21917919,38 6.08393241,38 C5.94868563,37.9338624 5.74581546,37.8015873 5.74581546,37.6693122 C5.61056868,37.4047619 5.67819207,37.1402116 5.67819207,36.8756614 C5.61056868,36.3465608 5.61056868,35.8174603 5.61056868,35.2883598 C5.61056868,35.0899471 5.67819207,34.8253968 5.54294529,34.6269841 C5.40769851,34.4285714 5.20482834,34.2301587 5.00195817,34.031746 C4.66384121,33.6349206 4.32572426,33.3042328 4.0552307,32.8412698 C3.58186697,32.1137566 3.17612662,31.3201058 2.90563306,30.526455 C2.56751611,29.6666667 2.29702255,28.8068783 2.16177576,27.9470899 C2.02652898,27.3518519 1.95890559,26.6904762 2.02652898,26.0952381 C2.09415237,25.4338624 2.36464594,24.7724868 2.56751611,24.1111111 C2.70276289,23.7142857 3.04087984,23.3174603 3.24375001,22.9206349 C3.3113734,23.1851852 3.3113734,23.515873 3.37899679,23.7804233 C3.51424357,24.1111111 3.71711375,24.3756614 3.85236053,24.6402116 C4.0552307,24.9047619 4.25810087,25.1693122 4.46097104,25.4338624 C4.79908799,25.8306878 5.13720495,26.2936508 5.4753219,26.6904762 C5.81343885,27.0873016 6.08393241,27.4179894 6.42204937,27.8148148 C6.55729615,27.9470899 6.62491954,28.2116402 6.82778971,28.2116402 C6.96303649,28.2116402 6.96303649,28.0132275 7.03065988,27.8809524 C7.16590666,27.484127 7.36877683,27.1534392 7.50402361,26.7566138 C7.6392704,26.3597884 7.70689379,25.8968254 7.70689379,25.4338624 C7.6392704,25.1031746 7.50402361,24.8386243 7.36877683,24.5079365 C7.16590666,23.978836 6.8954131,23.4497354 6.69254293,22.9206349 C6.42204937,21.9285714 6.1515558,21.0026455 6.01630902,20.010582 C5.88106224,19.2169312 5.88106224,18.4232804 5.88106224,17.6296296 C5.94868563,16.8359788 6.01630902,16.1084656 6.21917919,15.3148148 C6.42204937,14.7857143 6.76016632,14.3888889 7.09828327,13.9259259 C7.36877683,13.5952381 7.6392704,13.3306878 7.90976396,13 C7.90976396,13.2645503 7.90976396,13.5291005 7.97738735,13.7936508 C8.04501074,14.2566138 8.11263413,14.6534392 8.3155043,15.1164021 C8.58599786,15.7116402 8.92411482,16.3068783 9.19460838,16.9021164 C9.53272533,17.6296296 9.7355955,18.4232804 9.93846567,19.2169312 C10.0737125,19.6137566 10.1413358,20.010582 10.1413358,20.4074074 C10.2089592,20.8703704 10.2765826,21.3994709 10.2765826,21.8624339 C10.8851931,21.4656085 11.4261803,21.0687831 12.0347908,20.7380952 C12.7110247,20.4074074 13.3196352,20.2089947 13.9282457,20.010582 Z" id="Shape"></path>
                    <path d="M4.38075083,36.9155474 C4.78619805,37.3137387 5.19164526,37.6455648 5.52951793,38.1101212 C5.86739061,38.4419473 6.07011422,38.9065038 6.27283782,39.304695 C6.54313596,39.7028863 6.74585957,40.1674428 6.94858317,40.5656341 C7.08373224,40.233808 7.21888131,39.9019819 7.35403039,39.5701559 C7.55675399,39.1719646 7.7594776,38.7074081 8.02977574,38.3755821 C8.36764841,37.9110256 8.84067016,37.5128343 9.31369191,37.1146431 C9.85428819,36.6500866 10.3273099,36.1855301 10.8679062,35.7873389 C11.340928,35.4555128 11.8815242,35.190052 12.2869715,34.7918607 C12.5572696,34.5263999 12.8275677,34.260939 13.0302913,33.929113 C13.1654404,33.5972869 13.233015,33.2654608 13.3005895,33 C13.6384622,33.9954782 14.1114839,34.9909563 13.9763348,36.0527997 C13.7060367,37.9110256 12.2193969,40.4992688 10.9354808,41.8929383 C10.0570118,42.8220512 8.43522295,43.6184338 7.7594776,44.6139119 C7.62432853,44.8130076 7.48917946,45.0784684 7.48917946,45.3439292 C7.42160492,45.9412161 7.55675399,46.538503 7.55675399,47.1357899 C7.62432853,47.5339812 7.7594776,47.9321725 7.69190306,48.3303637 C7.69190306,48.5294594 7.55675399,48.728555 7.35403039,48.8612854 C7.21888131,48.9940159 6.94858317,49.0603811 6.74585957,48.9276506 C6.6107105,48.8612854 6.54313596,48.5958246 6.47556143,48.4630942 C6.34041236,47.9321725 6.34041236,47.467616 6.27283782,46.9366943 C6.20526329,46.4721378 6.27283782,46.0739466 6.27283782,45.6093901 C6.27283782,45.4766597 6.27283782,45.277564 6.20526329,45.2111988 C6.07011422,45.0121032 5.86739061,44.8130076 5.73224154,44.6802771 C5.25921979,44.2820859 4.71862351,43.8838946 4.24560176,43.4857033 C3.63743095,42.8884164 2.96168559,42.2911295 2.42108931,41.6274774 C1.88049303,40.8974601 1.40747128,39.9683472 1.00202407,39.1719646 C0.664151395,38.5083125 0.326278719,37.8446604 0.191129648,37.1146431 C0.0559805779,36.450991 -0.0791684926,35.6546084 0.0559805779,34.9245911 C0.123555113,34.260939 0.461427789,33.7300173 0.664151395,33.0663652 C0.866875001,33.4645565 1.00202407,33.929113 1.27232221,34.260939 C1.67776942,34.7254955 2.15079117,35.1236868 2.62381292,35.521878 C3.29955827,35.9200693 3.84015455,36.3846258 4.38075083,36.9155474 Z" id="Shape"></path>
                    <path d="M0.623578253,46.185454 C0.970010616,46.5124426 1.38572945,46.7740334 1.80144829,47.0356243 C2.42502654,47.3626129 3.18717774,47.558806 3.81075599,47.8203969 C4.50362072,48.1473855 5.26577192,48.4089764 5.88935017,48.8013627 C6.37435548,49.0629536 6.85936078,49.3899422 7.20579315,49.7169307 C7.62151198,50.1093171 7.96794435,50.5671011 8.31437671,51.0248851 C8.31437671,50.6978965 8.17580376,50.4363056 8.24509024,50.1093171 C8.24509024,49.7823285 8.38366318,49.3899422 8.52223613,49.0629536 C8.73009554,48.4743741 9.00724143,47.9511924 9.3536738,47.4280106 C9.70010616,46.9048289 10.1851115,46.3816471 10.6008303,45.8584654 C11.0165491,45.4006813 11.5015544,44.9428973 11.7787003,44.4197156 C12.0558462,44.0273293 12.1944192,43.5041475 12.3329921,43.0463635 C12.4022786,42.7193749 12.4022786,42.3269886 12.3329921,42 C12.9565704,42.5885795 13.5801486,43.1117612 13.788008,43.9619315 C14.2037269,45.4006813 13.926581,47.2318175 13.6494351,48.6051695 C13.3030027,50.0439193 12.610138,51.4172714 11.9172733,52.7252258 C11.6401274,53.2484075 10.8779762,54.0331801 10.8086897,54.5563619 C10.7394032,54.8179528 10.8086897,55.0795436 10.8779762,55.2757368 C11.1551221,55.8643162 11.5708409,56.387498 11.8479868,56.9760775 C11.9172733,57.1722706 11.9172733,57.3684638 11.9172733,57.4992592 C11.8479868,57.6954524 11.8479868,57.8916455 11.6401274,57.9570432 C11.5015544,58.0224409 11.2244086,58.0224409 11.0858356,57.8916455 C10.8086897,57.6954524 10.6701168,57.3684638 10.5315438,57.1068729 C10.2543979,56.6490889 10.0465385,56.1913048 9.76939263,55.7335208 C9.70010616,55.6027254 9.70010616,55.4719299 9.56153322,55.4065322 C9.3536738,55.2757368 9.07652791,55.2103391 8.86866849,55.1449414 C7.0672202,54.4909642 5.54291781,54.0331801 4.01861541,52.8560212 C2.7714589,51.8750554 1.38572945,50.5017034 0.623578253,49.193749 C0.346432363,48.735965 0.138572945,48.1473855 0.0692864726,47.6242038 C-0.0692864726,46.9702266 0.0692864726,46.185454 0,45.5314768 C0.207859418,45.7276699 0.346432363,45.9892608 0.623578253,46.185454 Z" id="Shape"></path>
                    <path d="M3.29837703,61.0361446 C2.97378277,60.626506 2.71410737,60.0803213 2.51935081,59.5341365 C2.32459426,58.9879518 2.19475655,58.4417671 2,57.8273092 C2.32459426,58.0321285 2.64918851,58.373494 2.97378277,58.5783133 C3.29837703,58.7148594 3.68789014,58.7831325 4.01248439,58.8514056 C4.72659176,58.9879518 5.44069913,59.0562249 6.15480649,59.2610442 C6.86891386,59.3975904 7.58302122,59.5341365 8.23220974,59.7389558 C8.6866417,59.875502 9.14107366,60.0120482 9.53058677,60.2168675 C9.98501873,60.4899598 10.309613,60.8313253 10.7640449,61.1726908 C10.6991261,60.8313253 10.6342072,60.4899598 10.6342072,60.1485944 C10.6342072,59.4658635 10.6991261,58.8514056 10.7640449,58.1686747 C10.8289638,57.5542169 10.9588015,56.939759 11.0886392,56.3253012 C11.3483146,55.5060241 11.60799,54.686747 11.8676654,53.935743 C11.9975031,53.4578313 12.2571785,53.0481928 12.3220974,52.502008 C12.3870162,52.0240964 12.2571785,51.4779116 12.2571785,51 C12.6466916,51.3413655 13.1660424,51.6144578 13.5555556,52.0240964 C13.9450687,52.502008 14.2047441,52.9799197 14.3995006,53.5261044 C14.7240949,54.3453815 14.8539326,55.3012048 14.9188514,56.188755 C15.0486891,57.1445783 14.9837703,58.1686747 14.9837703,59.124498 C14.9188514,59.9437751 14.7890137,60.8313253 14.659176,61.6506024 C14.5293383,62.4016064 14.2696629,63.0843373 13.9450687,63.7670683 C13.815231,64.1767068 13.5555556,64.5180723 13.4257179,64.9277108 C13.360799,65.1325301 13.360799,65.4738956 13.4906367,65.6787149 C13.6853933,66.0200803 14.1398252,66.2248996 14.3995006,66.5662651 C14.5293383,66.7028112 14.7240949,66.9076305 14.7890137,67.1124498 C14.8539326,67.248996 14.8539326,67.4538153 14.8539326,67.5903614 C14.7890137,67.7269076 14.659176,67.7951807 14.5293383,67.8634538 C14.3995006,67.9317269 14.2696629,68 14.2047441,68 C13.9450687,67.7951807 13.7503121,67.5220884 13.4906367,67.248996 C13.1011236,66.8393574 12.7765293,66.2931727 12.3870162,65.8835341 C12.062422,65.6104418 11.60799,65.3373494 11.2184769,65.2008032 C10.6991261,64.9959839 10.2446941,64.8594378 9.72534332,64.7228916 C9.20599251,64.5863454 8.6866417,64.5180723 8.16729089,64.313253 C7.64794007,64.1084337 7.12858926,63.9036145 6.6741573,63.6305221 C6.08988764,63.2891566 5.44069913,62.9477912 4.92134831,62.5381526 C4.4019975,62.1967871 3.81772784,61.6506024 3.29837703,61.0361446 Z" id="Shape"></path>
                </g>
            </g>
        </g>
    </g>
</svg>