<?xml version="1.0" encoding="UTF-8"?>
<svg width="63px" height="54px" viewBox="0 0 63 54" version="1.1" xmlns="http://www.w3.org/2000/svg" xmlns:xlink="http://www.w3.org/1999/xlink">
    <!-- Generator: Sketch 49.1 (51147) - http://www.bohemiancoding.com/sketch -->
    <title>头像</title>
    <desc>Created with Sketch.</desc>
    <defs></defs>
    <g id="Page-1" stroke="none" stroke-width="1" fill="none" fill-rule="evenodd">
        <g id="盈利榜" transform="translate(-38.000000, -106.000000)">
            <g id="亚军" transform="translate(35.000000, 86.000000)">
                <g id="头像" transform="translate(3.000000, 0.000000)">
                    <path d="M0,0 L63,0 L63,74 L0,74 L0,0 Z M33.3844336,20.472368 C32.2068595,19.8434363 30.7931405,19.8434363 29.6155664,20.472368 L11.1155664,30.3530498 C9.81326916,31.0485949 9,32.4049497 9,33.8813511 L9,53.1186489 C9,54.5950503 9.81326916,55.9514051 11.1155664,56.6469502 L29.6155664,66.527632 C30.7931405,67.1565637 32.2068595,67.1565637 33.3844336,66.527632 L51.8844336,56.6469502 C53.1867308,55.9514051 54,54.5950503 54,53.1186489 L54,33.8813511 C54,32.4049497 53.1867308,31.0485949 51.8844336,30.3530498 L33.3844336,20.472368 Z" id="Combined-Shape" fill="#007AFF"></path>
                    <path d="M13.6489362,58 L29.6155664,66.527632 C30.7931405,67.1565637 32.2068595,67.1565637 33.3844336,66.527632 L49.3510638,58 L63,58 L55.6744186,65 L63,72 L0,72 L7.3255814,65 L0,58 L13.6489362,58 Z" id="Combined-Shape" fill="#DD7C03"></path>
                    <path d="M48.9114546,58.2347913 L50,60 L45.606383,60 L48.9114546,58.2347913 Z M17.393617,60 L13,60 L14.0885454,58.2347913 L17.393617,60 Z" id="Combined-Shape" fill="#9E5801"></path>
                    <path d="M32.677771,21.7954809 C31.9417872,21.4023987 31.0582128,21.4023987 30.322229,21.7954809 L11.822229,31.6761628 C11.0082932,32.1108784 10.5,32.9586002 10.5,33.8813511 L10.5,53.1186489 C10.5,54.0413998 11.0082932,54.8891216 11.822229,55.3238372 L30.322229,65.2045191 C31.0582128,65.5976013 31.9417872,65.5976013 32.677771,65.2045191 L51.177771,55.3238372 C51.9917068,54.8891216 52.5,54.0413998 52.5,53.1186489 L52.5,33.8813511 C52.5,32.9586002 51.9917068,32.1108784 51.177771,31.6761628 L32.677771,21.7954809 Z" id="Polygon-Copy-2" stroke="#FF9716" stroke-width="3"></path>
                    <path d="M32.8932315,23.8597494 C32.0207519,23.4022296 30.9792481,23.4022296 30.1067685,23.8597494 L13.6067685,32.5121884 C12.6188911,33.0302217 12,34.0535845 12,35.1690486 L12,51.8309514 C12,52.9464155 12.6188911,53.9697783 13.6067685,54.4878116 L30.1067685,63.1402506 C30.9792481,63.5977704 32.0207519,63.5977704 32.8932315,63.1402506 L49.3932315,54.4878116 C50.3811089,53.9697783 51,52.9464155 51,51.8309514 L51,35.1690486 C51,34.0535845 50.3811089,33.0302217 49.3932315,32.5121884 L32.8932315,23.8597494 Z" id="Polygon-Copy" stroke="#007AFF" stroke-width="2"></path>
                    <path d="M13,60 L50,60 L50,73 C50,73.5522847 49.5522847,74 49,74 L14,74 C13.4477153,74 13,73.5522847 13,73 L13,60 Z" id="Rectangle-5-Copy-2" fill="#FF9716"></path>
                    <text id="2" font-family="PingFangSC-Regular, PingFang SC" font-size="10" font-weight="normal" fill="#FFFFFF">
                        <tspan x="28" y="71">2</tspan>
                    </text>
                </g>
            </g>
        </g>
    </g>
</svg>