<?xml version="1.0" encoding="UTF-8"?>
<svg width="63px" height="54px" viewBox="0 0 63 54" version="1.1" xmlns="http://www.w3.org/2000/svg" xmlns:xlink="http://www.w3.org/1999/xlink">
    <!-- Generator: Sketch 49.1 (51147) - http://www.bohemiancoding.com/sketch -->
    <title>头像</title>
    <desc>Created with Sketch.</desc>
    <defs></defs>
    <g id="Page-1" stroke="none" stroke-width="1" fill="none" fill-rule="evenodd">
        <g id="盈利榜" transform="translate(-272.000000, -106.000000)">
            <g id="季军" transform="translate(270.000000, 71.000000)">
                <g id="头像" transform="translate(2.000000, 0.000000)">
                    <path d="M0,0 L63,0 L63,89 L0,89 L0,0 Z M33.3844336,35.472368 C32.2068595,34.8434363 30.7931405,34.8434363 29.6155664,35.472368 L11.1155664,45.3530498 C9.81326916,46.0485949 9,47.4049497 9,48.8813511 L9,68.1186489 C9,69.5950503 9.81326916,70.9514051 11.1155664,71.6469502 L29.6155664,81.527632 C30.7931405,82.1565637 32.2068595,82.1565637 33.3844336,81.527632 L51.8844336,71.6469502 C53.1867308,70.9514051 54,69.5950503 54,68.1186489 L54,48.8813511 C54,47.4049497 53.1867308,46.0485949 51.8844336,45.3530498 L33.3844336,35.472368 Z" id="Combined-Shape" fill="#007AFF"></path>
                    <path d="M13.6489362,73 L29.6155664,81.527632 C30.7931405,82.1565637 32.2068595,82.1565637 33.3844336,81.527632 L49.3510638,73 L63,73 L55.6744186,80 L63,87 L0,87 L7.3255814,80 L0,73 L13.6489362,73 Z" id="Combined-Shape" fill="#6918F4"></path>
                    <path d="M48.9114546,73.2347913 L50,75 L45.606383,75 L48.9114546,73.2347913 Z M17.393617,75 L13,75 L14.0885454,73.2347913 L17.393617,75 Z" id="Combined-Shape" fill="#360092"></path>
                    <path d="M32.677771,36.7954809 C31.9417872,36.4023987 31.0582128,36.4023987 30.322229,36.7954809 L11.822229,46.6761628 C11.0082932,47.1108784 10.5,47.9586002 10.5,48.8813511 L10.5,68.1186489 C10.5,69.0413998 11.0082932,69.8891216 11.822229,70.3238372 L30.322229,80.2045191 C31.0582128,80.5976013 31.9417872,80.5976013 32.677771,80.2045191 L51.177771,70.3238372 C51.9917068,69.8891216 52.5,69.0413998 52.5,68.1186489 L52.5,48.8813511 C52.5,47.9586002 51.9917068,47.1108784 51.177771,46.6761628 L32.677771,36.7954809 Z" id="Polygon-Copy-7" stroke="#8B48FF" stroke-width="3"></path>
                    <path d="M32.8932315,38.8597494 C32.0207519,38.4022296 30.9792481,38.4022296 30.1067685,38.8597494 L13.6067685,47.5121884 C12.6188911,48.0302217 12,49.0535845 12,50.1690486 L12,66.8309514 C12,67.9464155 12.6188911,68.9697783 13.6067685,69.4878116 L30.1067685,78.1402506 C30.9792481,78.5977704 32.0207519,78.5977704 32.8932315,78.1402506 L49.3932315,69.4878116 C50.3811089,68.9697783 51,67.9464155 51,66.8309514 L51,50.1690486 C51,49.0535845 50.3811089,48.0302217 49.3932315,47.5121884 L32.8932315,38.8597494 Z" id="Polygon-Copy" stroke="#007AFF" stroke-width="2"></path>
                    <path d="M13,75 L50,75 L50,88 C50,88.5522847 49.5522847,89 49,89 L14,89 C13.4477153,89 13,88.5522847 13,88 L13,75 Z" id="Rectangle-5-Copy-2" fill="#8B48FF"></path>
                    <text id="3" font-family="PingFangSC-Regular, PingFang SC" font-size="10" font-weight="normal" fill="#FFFFFF">
                        <tspan x="28" y="86">3</tspan>
                    </text>
                </g>
            </g>
        </g>
    </g>
</svg>