<?xml version="1.0" encoding="UTF-8"?>
<svg width="14px" height="20px" viewBox="0 0 14 20" version="1.1" xmlns="http://www.w3.org/2000/svg" xmlns:xlink="http://www.w3.org/1999/xlink">
    <!-- Generator: Sketch 49.1 (51147) - http://www.bohemiancoding.com/sketch -->
    <title>Group</title>
    <desc>Created with Sketch.</desc>
    <defs></defs>
    <g id="Page-1" stroke="none" stroke-width="1" fill="none" fill-rule="evenodd">
        <g id="登陆" transform="translate(-49.000000, -99.000000)" stroke="#979797">
            <g id="Group-4" transform="translate(30.000000, 99.000000)">
                <g id="Group" transform="translate(20.000000, 0.000000)">
                    <path d="M2,0.5 C1.17157288,0.5 0.5,1.17157288 0.5,2 L0.5,17 C0.5,17.8284271 1.17157288,18.5 2,18.5 L10,18.5 C10.8284271,18.5 11.5,17.8284271 11.5,17 L11.5,2 C11.5,1.17157288 10.8284271,0.5 10,0.5 L2,0.5 Z" id="Rectangle-5"></path>
                    <path d="M3,1.5 L9,1.5 L8.5,1 C8.5,1.27614237 8.27614237,1.5 8,1.5 L4,1.5 C3.72385763,1.5 3.5,1.27614237 3.5,1 L3,1.5 Z" id="Rectangle-7"></path>
                    <path d="M3.5,16.5 L8.5,16.5 L3.5,16.5 Z" id="Rectangle-9"></path>
                </g>
            </g>
        </g>
    </g>
</svg>