<?xml version="1.0" encoding="UTF-8"?>
<svg width="16px" height="20px" viewBox="0 0 16 20" version="1.1" xmlns="http://www.w3.org/2000/svg" xmlns:xlink="http://www.w3.org/1999/xlink">
    <!-- Generator: Sketch 49.1 (51147) - http://www.bohemiancoding.com/sketch -->
    <title>Star</title>
    <desc>Created with Sketch.</desc>
    <defs></defs>
    <g id="Page-1" stroke="none" stroke-width="1" fill="none" fill-rule="evenodd">
        <g id="修改密码" transform="translate(-48.000000, -100.000000)" stroke="#979797">
            <g id="Group-3" transform="translate(30.000000, 98.000000)">
                <g id="Group-5" transform="translate(18.000000, 2.000000)">
                    <path d="M7.99978067,1.52733299 C7.28540696,1.76423203 6.63424746,2.01311861 5.93704101,2.30797664 C5.5460064,2.47335046 4.316507,3.01869861 4.1296867,3.0990536 C2.84622454,3.65109525 1.82267047,3.9873973 0.516887108,4.23228538 C0.515454107,4.41668003 0.512999966,4.62639088 0.509218404,4.91512486 C0.494093072,6.06999091 0.495475687,6.52928738 0.527701207,7.12358395 C0.610302641,8.64690306 0.912479859,9.94757418 1.60487266,11.4818292 C2.46211684,13.3813739 4.59469229,15.6851832 8.00097078,18.3639351 C11.4363429,15.6263738 13.5710641,13.3215336 14.401303,11.4818292 C15.0548935,10.0335553 15.3587085,8.75595028 15.4573514,7.27524338 C15.5016789,6.60985358 15.5062378,6.08965499 15.4938498,4.80418437 C15.4915614,4.5667257 15.4900064,4.38934214 15.4890264,4.2352849 C14.0418795,3.97566553 12.9491482,3.61586407 11.5588418,3.00694522 C11.3933067,2.93444506 10.2361753,2.41411468 9.87043965,2.25658838 C9.23077041,1.98107594 8.63940397,1.74849685 7.99978067,1.52733299 Z" id="Polygon"></path>
                    <path d="M9.6870755,11.3220602 L9.36487275,9.44347404 L10.7297455,8.11305192 L8.84353775,7.83896989 L8,6.12977573 L7.15646225,7.83896989 L5.27025451,8.11305192 L6.63512725,9.44347404 L6.3129245,11.3220602 L8,10.4351121 L9.6870755,11.3220602 Z" id="Star"></path>
                </g>
            </g>
        </g>
    </g>
</svg>