<?xml version="1.0" encoding="UTF-8"?>
<svg width="20px" height="20px" viewBox="0 0 20 20" version="1.1" xmlns="http://www.w3.org/2000/svg" xmlns:xlink="http://www.w3.org/1999/xlink">
    <!-- Generator: Sketch 49.1 (51147) - http://www.bohemiancoding.com/sketch -->
    <title>Group 5</title>
    <desc>Created with Sketch.</desc>
    <defs>
        <linearGradient x1="18.9730203%" y1="3.56529986%" x2="86.0514323%" y2="100%" id="linearGradient-1">
            <stop stop-color="#FEB96E" offset="0%"></stop>
            <stop stop-color="#FC8A0E" offset="100%"></stop>
        </linearGradient>
    </defs>
    <g id="Page-1" stroke="none" stroke-width="1" fill="none" fill-rule="evenodd">
        <g id="我的" transform="translate(-18.000000, -258.000000)">
            <g id="Group-7-Copy" transform="translate(0.000000, 258.000000)">
                <path d="M38,8 L33,8 C31.8954305,8 31,8.8954305 31,10 C31,11.1045695 31.8954305,12 33,12 L38,12 L38,16 C38,17.1045695 37.1045695,18 36,18 L20,18 C18.8954305,18 18,17.1045695 18,16 L18,4 C18,2.8954305 18.8954305,2 20,2 L36,2 C37.1045695,2 38,2.8954305 38,4 L38,8 Z" id="Combined-Shape" fill="url(#linearGradient-1)"></path>
                <circle id="Oval-3" fill="#FC8A0E" cx="34" cy="10" r="1"></circle>
            </g>
        </g>
    </g>
</svg>