<?xml version="1.0" encoding="UTF-8"?>
<svg width="22px" height="22px" viewBox="0 0 22 22" version="1.1" xmlns="http://www.w3.org/2000/svg" xmlns:xlink="http://www.w3.org/1999/xlink">
    <!-- Generator: Sketch 49.1 (51147) - http://www.bohemiancoding.com/sketch -->
    <title>Shape</title>
    <desc>Created with Sketch.</desc>
    <defs></defs>
    <g id="Page-1" stroke="none" stroke-width="1" fill="none" fill-rule="evenodd">
        <g id="我的-充值" transform="translate(-54.000000, -73.000000)" fill="#00A0E7" fill-rule="nonzero">
            <g id="Group" transform="translate(54.000000, 73.000000)">
                <g id="支付宝">
                    <path d="M20.5631543,1.45946132 C19.1274279,0.0231234455 17.6054846,0.0145628991 15.2225946,0.0145628991 L6.78923065,0.0145628991 C4.39839156,0.0145628991 2.88256286,0.0237349054 1.45111676,1.45640398 C0.0147789035,2.89274185 0.00560687561,4.41529667 0.00560687561,6.79818669 L0.00560687561,15.2315506 C0.00560687561,17.6205553 0.0153903634,19.1363839 1.44744795,20.569053 C2.88378583,22.0053909 4.40572916,22.01334 6.78923065,22.01334 L15.2225946,22.01334 C17.6128222,22.01334 19.1280394,22.0047794 20.560097,20.5727218 C21.9958234,19.1357725 22.0056069,17.6138291 22.0056069,15.2315506 L22.0056069,6.79818669 C22.0056069,4.4073476 21.9952119,2.89213039 20.5631543,1.45946132 Z M21.0523286,17.3985925 C20.7858175,17.9033228 20.4954499,18.3950909 20.1822099,18.8722299 L12.1365166,14.9643392 C12.1365166,14.9643392 10.6157962,16.6874554 9.06450233,17.4468984 C7.51259705,18.204507 5.73139135,18.6777831 3.80159898,18.2118447 C1.87241806,17.7452947 0.502730201,16.4813908 0.738145303,14.1480296 C0.974171865,11.8134456 3.40842519,11.008754 5.41220516,11.008754 C7.41598513,11.008754 11.2150346,12.3386964 11.2150346,12.3386964 C11.2150346,12.3386964 11.5348323,11.606158 11.8454579,10.7672242 C12.1554721,9.92890184 12.2423005,9.25628726 12.2423005,9.25628724 L4.15074711,9.25628724 L4.15074711,8.42530249 L8.08248505,8.42530249 L8.08248505,6.83487476 L3.18034769,6.87156283 L3.18034769,5.82289554 L8.08248505,5.82289554 L8.08248505,3.43755965 L10.656153,3.43755965 L10.656153,5.82289554 L15.9104958,5.82289554 L15.9104958,6.87033989 L10.656153,6.90641648 L10.656153,8.38861442 L14.9951285,8.42469103 C14.9951285,8.42469103 14.9162492,9.25567578 14.3665396,10.7666127 C13.8174416,12.2787726 13.3013627,13.0486105 13.3013627,13.0486105 L21.7194399,15.8784835 C21.7188285,15.8784835 21.4167634,16.6880669 21.0523286,17.3985925 Z" id="Shape"></path>
                    <path d="M4.3898984,12.1673296 C2.00352092,12.3321304 1.42051982,13.4641015 1.42051982,14.5082637 C1.42051982,15.550517 2.01016652,17 4.81461316,17 C7.61845567,17 9.99999998,13.948323 10,13.948323 C10,13.948323 6.77748418,12.0044378 4.3898984,12.1673296 Z" id="Shape"></path>
                </g>
            </g>
        </g>
    </g>
</svg>